<?xml version="1.0" encoding="utf-8"?>
<!-- Generator: Adobe Illustrator 22.0.0, SVG Export Plug-In . SVG Version: 6.00 Build 0)  -->
<svg version="1.1" id="Camada_1" xmlns="http://www.w3.org/2000/svg" xmlns:xlink="http://www.w3.org/1999/xlink" x="0px" y="0px"
	 viewBox="0 0 500 500" style="enable-background:new 0 0 500 500;" xml:space="preserve">
<style type="text/css">
	.st0{fill:#FFFFFF;}
	.st1{fill:#D6953E;}
	.st2{fill:#B57B35;}
	.st3{fill:#285C77;}
	.st4{fill:#868689;}
	.st5{fill:#6D6D6D;}
	.st6{fill:#C5C4D7;}
	.st7{fill:#A5A5AD;}
	.st8{fill:#172F47;}
	.st9{fill:#202739;}
	.st10{fill:#A7A6BB;}
	.st11{fill:#FEFEFE;}
	.st12{fill:#FD7C3A;}
	.st13{fill:#004DB9;}
	.st14{fill:#D3D3D3;}
	.st15{fill:#ADADAD;}
	.st16{fill:#E4E4EF;}
	.st17{fill:#897762;}
	.st18{fill:#331D0B;}
	.st19{fill:#635140;}
	.st20{fill:#EDAC7C;}
	.st21{fill:#F7A588;}
	.st22{fill:#CF9166;}
	.st23{fill:#704316;}
	.st24{fill:#6B4015;}
	.st25{fill:#39748E;}
	.st26{fill:#77BFD8;}
</style>
<g id="BACKGROUND">
	<rect id="XMLID_1_" class="st0" width="500" height="500"/>
</g>
<g>
	<g>
		<polygon class="st1" points="82.5,314.5 126.6,210.8 126.6,190.3 73.8,314.5 		"/>
		<polygon class="st2" points="120.3,209.5 126.6,210.8 126.6,190.3 119,208.1 117.7,211.2 		"/>
	</g>
	<g>
		<path class="st3" d="M321,85.9l-17.5,16.2l6,9.2c1.2,1.9,1.3,4.2,0.4,6.3c0,0,0,0,0,0.1c-0.9,2-2.8,3.5-5,3.8l-10.9,1.4l-0.9,23.9
			l10.8,2.2c2.2,0.5,4,2,4.7,4.2c0,0,0,0,0,0.1c0.8,2.1,0.5,4.5-0.9,6.2l-6.7,8.7l8.1,8.7l8.1,8.7l9.2-6c1.9-1.2,4.2-1.3,6.3-0.4
			c0,0,0,0,0.1,0c2,0.9,3.5,2.8,3.8,5l1.4,10.9l23.9,0.9l2.2-10.8c0.5-2.2,2-4,4.2-4.7c0,0,0,0,0.1,0c2.1-0.8,4.5-0.5,6.2,0.9
			l8.7,6.7l17.5-16.2l-6-9.2c-1.2-1.9-1.3-4.2-0.4-6.3c0,0,0,0,0-0.1c0.9-2,2.8-3.5,5-3.8l10.9-1.4l0.9-23.9l-10.8-2.2
			c-2.2-0.5-4-2-4.7-4.2c0,0,0,0,0-0.1c-0.8-2.1-0.5-4.5,0.9-6.2l6.7-8.7l-8.1-8.7l-8.1-8.7l-9.2,6c-1.9,1.2-4.2,1.3-6.3,0.4
			c0,0,0,0-0.1,0c-2-0.9-3.5-2.8-3.8-5l-1.4-10.9L342.4,78l-2.2,10.8c-0.5,2.2-2,4-4.2,4.7c0,0,0,0-0.1,0c-2.1,0.8-4.5,0.5-6.2-0.9
			L321,85.9z M378,113.1c13.2,14.3,12.4,36.6-1.9,49.8s-36.6,12.4-49.8-1.9c-13.2-14.3-12.4-36.6,1.9-49.8
			C342.4,98,364.7,98.8,378,113.1z"/>
		<path class="st1" d="M429.8,113.7l-7.7,7.2l2.7,4.1c0.5,0.8,0.6,1.9,0.2,2.8l0,0c-0.4,0.9-1.2,1.5-2.2,1.7l-4.8,0.6l-0.4,10.5
			l4.8,1c1,0.2,1.7,0.9,2.1,1.8l0,0c0.3,0.9,0.2,2-0.4,2.8l-3,3.9l3.6,3.9l3.6,3.9l4.1-2.7c0.8-0.5,1.9-0.6,2.8-0.2l0,0
			c0.9,0.4,1.5,1.2,1.7,2.2l0.6,4.8l10.5,0.4l1-4.8c0.2-1,0.9-1.7,1.8-2.1l0,0c0.9-0.3,2-0.2,2.8,0.4l3.9,3l7.7-7.2l-2.7-4.1
			c-0.5-0.8-0.6-1.9-0.2-2.8l0,0c0.4-0.9,1.2-1.5,2.2-1.7l4.8-0.6l0.4-10.5l-4.8-1c-1-0.2-1.7-0.9-2.1-1.8l0,0
			c-0.3-0.9-0.2-2,0.4-2.8l3-3.9l-3.6-3.9l-3.6-3.9l-4.1,2.7c-0.8,0.5-1.9,0.6-2.8,0.2l0,0c-0.9-0.4-1.5-1.2-1.7-2.2l-0.6-4.8
			l-10.5-0.4l-1,4.8c-0.2,1-0.9,1.7-1.8,2.1l0,0c-0.9,0.3-2,0.2-2.8-0.4L429.8,113.7z M455,125.7c5.9,6.3,5.5,16.2-0.8,22
			s-16.2,5.5-22-0.8s-5.5-16.2,0.8-22C439.3,119,449.1,119.4,455,125.7z"/>
		<path class="st1" d="M245.5,51.3l-11.4,10.6l3.9,6c0.8,1.2,0.9,2.8,0.3,4.1l0,0c-0.6,1.3-1.8,2.3-3.3,2.5l-7.1,0.9l-0.6,15.5
			l7,1.5c1.4,0.3,2.6,1.3,3.1,2.7l0,0c0.5,1.4,0.3,2.9-0.6,4.1l-4.3,5.7l5.3,5.7l5.3,5.7l6-3.9c1.2-0.8,2.8-0.9,4.1-0.3l0,0
			c1.3,0.6,2.3,1.8,2.5,3.3l0.9,7.1l15.5,0.6l1.5-7c0.3-1.4,1.3-2.6,2.7-3.1l0,0c1.4-0.5,2.9-0.3,4.1,0.6l5.7,4.3l11.4-10.6l-3.9-6
			c-0.8-1.2-0.9-2.8-0.3-4.1l0,0c0.6-1.3,1.8-2.3,3.3-2.5l7.1-0.9l0.6-15.5l-7-1.5c-1.4-0.3-2.6-1.3-3.1-2.7l0,0
			c-0.5-1.4-0.3-2.9,0.6-4.1l4.3-5.7l-5.3-5.7l-5.3-5.7l-6,3.9c-1.2,0.8-2.8,0.9-4.1,0.3l0,0c-1.3-0.6-2.3-1.8-2.5-3.3l-0.9-7.1
			l-15.5-0.6l-1.5,7c-0.3,1.4-1.3,2.6-2.7,3.1l0,0c-1.4,0.5-2.9,0.3-4.1-0.6L245.5,51.3z M282.6,69c8.6,9.3,8.1,23.8-1.2,32.4
			c-9.3,8.6-23.8,8.1-32.4-1.2s-8.1-23.8,1.2-32.4C259.5,59.1,274,59.7,282.6,69z"/>
	</g>
	<g>
		<g>
			<path id="XMLID_206_" class="st4" d="M50.5,325.1h398.9c3,0,5.4-2.4,5.4-5.4l0,0c0-3-2.4-5.4-5.4-5.4H50.5c-3,0-5.4,2.4-5.4,5.4
				l0,0C45.1,322.7,47.5,325.1,50.5,325.1z"/>
			<path class="st5" d="M45.5,321.9c0.8,1.9,2.7,3.2,4.9,3.2h398.9c2.2,0,4.1-1.3,4.9-3.2H45.5z"/>
		</g>
		<rect id="XMLID_42_" x="168.1" y="308.8" class="st6" width="148" height="5.6"/>
		<rect id="XMLID_270_" x="183.1" y="308.8" class="st7" width="148" height="5.6"/>
	</g>
	<g>
		<path id="XMLID_520_" class="st8" d="M362.3,274.8H138.6c-3.9,0-7-3.1-7-7V133.1c0-3.9,3.1-7,7-7h223.8c3.9,0,7,3.1,7,7v134.7
			C369.3,271.7,366.2,274.8,362.3,274.8z"/>
		<rect x="248.8" y="148.4" class="st9" width="3.2" height="104"/>
		<path class="st10" d="M369.3,141.7v-7.6c0-4.4-3.6-8-8-8H139.6c-4.4,0-8,3.6-8,8v7.6H369.3z"/>
		<g>
			<g>
				<rect x="269.3" y="202.3" class="st11" width="32.7" height="5.6"/>
				<rect x="269.3" y="213.2" class="st12" width="40.7" height="5.6"/>
				<rect x="314.1" y="213.2" class="st11" width="20.2" height="5.6"/>
				<rect x="269.3" y="224.2" class="st11" width="16" height="5.6"/>
				<rect x="290.8" y="224.2" class="st11" width="60.1" height="5.6"/>
				<rect x="309.6" y="202.3" class="st13" width="18.8" height="5.6"/>
			</g>
			<g>
				<rect x="269.3" y="151.2" class="st11" width="32.7" height="5.6"/>
				<rect x="269.3" y="162.1" class="st12" width="40.7" height="5.6"/>
				<rect x="314.1" y="162.1" class="st11" width="20.2" height="5.6"/>
				<rect x="269.3" y="173.1" class="st11" width="16" height="5.6"/>
				<rect x="290.8" y="173.1" class="st11" width="60.1" height="5.6"/>
				<rect x="309.6" y="151.2" class="st13" width="18.8" height="5.6"/>
			</g>
		</g>
		<g>
			<g>
				<rect x="158.2" y="202.3" class="st11" width="32.7" height="5.6"/>
				<rect x="158.2" y="213.2" class="st12" width="40.7" height="5.6"/>
				<rect x="203" y="213.2" class="st11" width="20.2" height="5.6"/>
				<rect x="158.2" y="224.2" class="st11" width="16" height="5.6"/>
				<rect x="179.7" y="224.2" class="st11" width="60.1" height="5.6"/>
				<rect x="198.5" y="202.3" class="st13" width="18.8" height="5.6"/>
			</g>
			<g>
				<rect x="158.2" y="151.2" class="st11" width="32.7" height="5.6"/>
				<rect x="158.2" y="162.1" class="st12" width="40.7" height="5.6"/>
				<rect x="203" y="162.1" class="st11" width="20.2" height="5.6"/>
				<rect x="158.2" y="173.1" class="st11" width="16" height="5.6"/>
				<rect x="179.7" y="173.1" class="st11" width="60.1" height="5.6"/>
				<rect x="198.5" y="151.2" class="st13" width="18.8" height="5.6"/>
			</g>
		</g>
		<g id="XMLID_327_">
			<path class="st4" d="M357.7,279.8H143.2c-9.2,0-16.7-7.5-16.7-16.7V137.8c0-9.2,7.5-16.7,16.7-16.7h214.5
				c9.2,0,16.7,7.5,16.7,16.7v125.4C374.3,272.4,366.9,279.8,357.7,279.8z M143.2,131.1c-3.7,0-6.7,3-6.7,6.7V241
				c0,3.7,3,6.7,6.7,6.7h214.5c3.7,0,6.7-3,6.7-6.7V137.8c0-3.7-3-6.7-6.7-6.7H143.2z"/>
		</g>
		<path class="st14" d="M352.5,252.1l0.5-2.1c1.3-5.9-0.6-12.1-5-16.2l0,0c-4.4-4.1-10.8-5.6-16.6-3.8l-1,0.3l12.8,11.9l-1.9,8.5
			l-8.3,2.6l-12.8-11.9l-0.2,1.1c-1.3,5.9,0.6,12.1,5,16.2l0,0c4.4,4.1,10.8,5.6,16.6,3.8l2.1-0.6l18.8,17.4
			c4.5-1.3,8.2-4.4,10.2-8.5L352.5,252.1z"/>
		<g>
			<path class="st5" d="M357.7,128.7H143.2c-3.7,0-6.7,3-6.7,6.7v2.4c0-3.7,3-6.7,6.7-6.7h214.5c3.7,0,6.7,3,6.7,6.7v-2.4
				C364.4,131.7,361.4,128.7,357.7,128.7z"/>
			<path class="st5" d="M357.7,277.4H143.2c-9.2,0-16.7-7.5-16.7-16.7v2.4c0,9.2,7.5,16.7,16.7,16.7h214.5c9.2,0,16.7-7.5,16.7-16.7
				v-2.4C374.3,269.9,366.9,277.4,357.7,277.4z"/>
		</g>
		<path class="st11" d="M353.5,136.6c0,1.4-1.1,2.5-2.5,2.5s-2.5-1.1-2.5-2.5s1.1-2.5,2.5-2.5S353.5,135.2,353.5,136.6z"/>
		<path class="st9" d="M344.8,136.6c0,1.4-1.1,2.5-2.5,2.5s-2.5-1.1-2.5-2.5s1.1-2.5,2.5-2.5S344.8,135.2,344.8,136.6z"/>
		<path class="st12" d="M336.1,136.6c0,1.4-1.1,2.5-2.5,2.5s-2.5-1.1-2.5-2.5s1.1-2.5,2.5-2.5S336.1,135.2,336.1,136.6z"/>
	</g>
	<g>
		<polygon class="st1" points="119.4,314.5 173.1,187.9 165.8,184.8 110.7,314.5 		"/>
		<path class="st1" d="M119.7,211.5L119.7,211.5c0-2.2,1.8-4,4-4H158v8h-34.3C121.5,215.5,119.7,213.7,119.7,211.5z"/>
		<rect x="108.9" y="236" class="st1" width="38.2" height="8"/>
		<rect x="96.6" y="264.5" class="st1" width="39" height="8"/>
		<rect x="85" y="293.1" class="st1" width="37.9" height="8"/>
	</g>
	<g>
		<path class="st15" d="M399.6,304.1l-42.9-60.9l0.9-2c2.5-5.5,2-12-1.5-16.9c-3.5-5-9.4-7.7-15.4-7.1l-1.1,0.1l10,14.2l-3.7,7.9
			l-8.7,0.8l-10-14.2l-0.5,1c-2.5,5.5-2,12,1.5,16.9c3.5,5,9.4,7.7,15.4,7.1l2.2-0.2l42.9,60.9c2.1,3,6.2,3.7,9.2,1.6
			S401.7,307.1,399.6,304.1z"/>
		<path class="st4" d="M393.1,306.5L393.1,306.5c-1.5,1-3.5,0.7-4.5-0.8l-35.9-51c-1-1.5-0.7-3.5,0.8-4.5l0,0c1.5-1,3.5-0.7,4.5,0.8
			l35.9,51C395,303.4,394.6,305.5,393.1,306.5z"/>
	</g>
</g>
<g>
	<path class="st16" d="M463.4,459.9H36.5c-3.9,0-7-3.1-7-7l0,0c0-3.9,3.1-7,7-7h426.9c3.9,0,7,3.1,7,7l0,0
		C470.3,456.7,467.2,459.9,463.4,459.9z"/>
	<path class="st6" d="M332.1,459.9H167.7c-3.9,0-7-3.1-7-7l0,0c0-3.9,3.1-7,7-7h164.4c3.9,0,7,3.1,7,7l0,0
		C339.1,456.7,336,459.9,332.1,459.9z"/>
</g>
<g>
	<path class="st17" d="M248.8,333.1h39.4c0.6,0,1.3,0,2,0.1c13.4,1.4,22.3,14.6,19.2,27.7l-16.1,75h-23.1l11.1-71.1h-32.4v-31.7
		H248.8z"/>
	<path class="st18" d="M270.1,435.9h19.3c0,0,20.6,1.9,20.6,15.6h-39.9V435.9z"/>
	<path class="st17" d="M251.1,333.1h-39.4c-0.6,0-1.3,0-2,0.1c-13.4,1.4-22.3,14.6-19.2,27.7l16.1,75h23.1l-11.1-71.1H251
		L251.1,333.1L251.1,333.1z"/>
	<path class="st19" d="M283.7,435.9c0.1-0.3,0.2-0.5,0.2-0.8c2.7-8.8,5.2-29.9,7.7-38.8c2.7-9.5,5.2-19.1,7-28.8c0.4-2,0.7-4,1.1-6
		c0.1-0.9,0.2-1.5,0.3-1.8c0.1-1,0.2-2.1,0.3-3.1c0-0.3,0-0.5,0.1-0.8h-51.6v8.9h32.4l-11.1,71.1L283.7,435.9L283.7,435.9z"/>
	<path class="st19" d="M251.1,355.9h-49.5c0.2,1,0.5,2,0.7,3c2.2,8.6,5,17,7.8,25.3c2.7,8.2,5.6,16.3,7.7,24.7
		c1.2,4.9,2.2,22.1,3.4,27h8.7l-11.1-71.1h32.4L251.1,355.9L251.1,355.9z"/>
	<g id="XMLID_534_">
		<g id="XMLID_535_">
			<g id="XMLID_537_">
				<g id="XMLID_570_">
					<path id="XMLID_573_" class="st20" d="M227.2,201.9c0,0-4.9-7.8-10.6-3.5c-5.6,4.2,0.3,19.6,10.6,17.1V201.9z"/>
					<path id="XMLID_572_" class="st21" d="M227.2,207v7c-8.7,0.7-12.5-11.7-8.4-13C222.2,200,225.8,204.6,227.2,207z"/>
					<path id="XMLID_571_" class="st22" d="M217.3,203.4c0,0,0-0.1,0.1-0.1c0-0.1,0.1-0.2,0.2-0.4c0.2-0.3,0.4-0.8,0.9-1.1
						c0.1-0.1,0.2-0.1,0.4-0.2c0.1,0,0.1,0,0.2-0.1h0.1l0,0l0,0l0,0l0,0l0,0h0.1c0.1,0,0.2,0,0.2,0c0.1,0,0.2,0,0.2,0
						c0.1,0,0.2,0,0.3,0s0.2,0,0.3,0c0.7,0.1,1.4,0.5,2.1,0.9c0.3,0.2,0.7,0.5,1,0.7c0.3,0.3,0.6,0.5,0.9,0.8
						c0.6,0.5,1.1,1.1,1.5,1.6c0.9,1,1.5,1.6,1.5,1.6s-0.1-0.2-0.2-0.6c-0.2-0.4-0.4-0.9-0.7-1.4c-0.2-0.3-0.4-0.6-0.6-0.9
						c-0.2-0.3-0.5-0.6-0.7-1c-0.6-0.6-1.2-1.3-2-1.8c-0.4-0.3-0.8-0.5-1.3-0.7c-0.4-0.2-0.9-0.3-1.4-0.3c-0.1,0-0.2,0-0.4,0
						c-0.1,0-0.2,0-0.3,0s-0.2,0-0.3,0.1c-0.1,0-0.2,0.1-0.3,0.1H219h-0.1h-0.1c-0.1,0-0.2,0.1-0.3,0.1c-0.2,0.1-0.3,0.2-0.5,0.4
						c-0.3,0.3-0.4,0.6-0.5,0.9c-0.1,0.3-0.1,0.5-0.2,0.7c0,0.2,0,0.4,0,0.5C217.2,203.3,217.3,203.4,217.3,203.4z"/>
				</g>
				<g id="XMLID_566_">
					<path id="XMLID_569_" class="st20" d="M279.5,206.4c0,0,6.2-6.8,11-1.7c4.8,5.2-3.7,19.3-13.4,15.1L279.5,206.4z"/>
					<path id="XMLID_568_" class="st21" d="M278.6,211.5l-1.2,6.9c8.5,2.2,14.3-9.4,10.5-11.4C284.7,205.4,280.4,209.3,278.6,211.5z
						"/>
					<path id="XMLID_567_" class="st22" d="M289,209.6c0,0,0-0.1,0-0.2c0-0.1-0.1-0.2-0.1-0.4c-0.1-0.4-0.3-0.9-0.7-1.3
						c-0.1-0.1-0.2-0.2-0.3-0.2c-0.1,0-0.1-0.1-0.2-0.1h-0.1l0,0l0,0l0,0l0,0l0,0h-0.1c-0.1,0-0.2-0.1-0.2-0.1c-0.1,0-0.1,0-0.2,0
						s-0.2,0-0.3,0c-0.1,0-0.2,0-0.3,0c-0.7,0-1.5,0.2-2.2,0.5c-0.4,0.2-0.7,0.4-1.1,0.6c-0.4,0.2-0.7,0.4-1,0.6
						c-0.7,0.4-1.3,0.9-1.8,1.3c-1,0.8-1.7,1.3-1.7,1.3s0.1-0.2,0.3-0.5c0.2-0.3,0.5-0.8,1-1.3c0.2-0.2,0.5-0.5,0.7-0.8
						c0.3-0.3,0.6-0.5,0.9-0.8c0.7-0.5,1.4-1,2.3-1.4c0.4-0.2,0.9-0.3,1.4-0.4c0.5-0.1,1-0.1,1.4-0.1c0.1,0,0.2,0,0.3,0.1
						c0.1,0,0.2,0,0.3,0.1c0.1,0,0.2,0.1,0.3,0.1c0.1,0,0.2,0.1,0.3,0.1l0.1,0.1h0.1h0.1c0.1,0.1,0.2,0.1,0.3,0.2
						c0.2,0.1,0.3,0.3,0.4,0.5c0.2,0.3,0.3,0.6,0.4,0.9c0.1,0.3,0,0.5,0,0.7s0,0.3-0.1,0.4C289,209.5,289,209.6,289,209.6z"/>
				</g>
				<path id="XMLID_565_" class="st20" d="M244,226.7h14.2l0.6,22.2c0,0-1,4.4-7.3,4.5s-7.9-4.5-7.9-4.5
					C243.7,248.8,244,226.7,244,226.7z"/>
				<path id="XMLID_14_" class="st22" d="M244,226.7h14.2l0.6,22.2c0,0-1,4.4-7.3,4.5s-7.9-4.5-7.9-4.5
					C243.7,248.8,244,226.7,244,226.7z"/>
				<path id="XMLID_563_" class="st22" d="M244.8,230.2l14.1,1.2c0,0-0.1,2.8-0.1,5.3c0,0.4-4.1,0.6-4.6,0.6
					c-3.5,0.3-6.9-0.5-10.2-1.6C244.4,233.2,244.8,230.2,244.8,230.2z"/>
				<path id="XMLID_561_" class="st22" d="M224.2,195.3c1.2-9.8,6.2-18.7,16.3-21.7c5.1-1.5,10.6-1.6,15.9-1
					c5.2,0.5,10.7,1.4,15.5,3.7c8.5,4.1,6.8,8.6,6.9,17.6c0,0.9,5.5,5.7,5.5,6.6c-0.1,2-0.1,4-0.4,6.1c-0.6,4.6-1.7,9.1-3.6,13.3
					c-2.3,5.1-5.7,9.7-10.4,12.9c-2.7,1.8-5.7,3.1-8.8,3.9c-5.2,1.3-10,1.5-15.2,0.1c-3.5-1-6.9-2.4-9.8-4.5
					c-4.9-3.4-8.4-8.4-10.4-14c-1.6-4.7-2.3-9.7-2.3-14.6c0-2.7,0.2-5.4,0.7-8.1C224.2,195.4,224.2,195.4,224.2,195.3z"/>
				<g id="XMLID_538_">
					<path id="XMLID_539_" class="st22" d="M223.7,195.6c0,0-0.2-3.8,0.3-8.8C223.6,191.8,223.7,195.6,223.7,195.6z"/>
				</g>
				<path id="XMLID_574_" class="st23" d="M229.3,175.5c8.9-13.4,56.5-17.4,59.5,27.6c2.2,32.8-34.9,36.9-52.7,29.2
					C205.8,219.2,220.4,188.8,229.3,175.5z"/>
			</g>
			<path id="XMLID_536_" class="st24" d="M223.3,209.1c0,0-4.2-1.3-6.6-10.8c-1.6-6.5,0.2-20.1,8.2-26.7c4.7-3.8,6-2.1,6-2.1
				s1.2-4.6,10.1-8.5c29-12.6,36.4,1.1,40.6,12.4c5.6,15.4,2.8,26.9-27.6,17c-12.3-4-20-6-20-6s0.1,4-2.4,9.6s-8.3,11.8-8.3,11.8"/>
		</g>
	</g>
	<path class="st13" d="M305.6,295.8l-16.9-38.6c-2.4-5.5-8.9-9.2-16.3-9.2h-20.2H250h-20.2c-7.3,0-13.8,3.7-16.3,9.2l-16.9,38.6
		c-3.9,9,4.4,18.4,16.2,18.4H250h2.2h37.2C301.2,314.2,309.5,304.8,305.6,295.8z"/>
	<path class="st25" d="M279.6,354.5h-56.2c-7.8,0-14.1-6.3-14.1-14.1v-71.6c0-7.8,6.3-14.1,14.1-14.1h56.2c7.8,0,14.1,6.3,14.1,14.1
		v71.6C293.7,348.2,287.4,354.5,279.6,354.5z"/>
	<path class="st3" d="M275.5,348.4h-48c-7.8,0-14.1-6.3-14.1-14.1v-65.4c0-7.8,6.3-14.1,14.1-14.1h48c7.8,0,14.1,6.3,14.1,14.1v65.4
		C289.6,342.1,283.3,348.4,275.5,348.4z"/>
	<path class="st25" d="M274.3,243.4h-48c-7.8,0-14.1-6.3-14.1-14.1V208c0-7.8,6.3-14.1,14.1-14.1h48c7.8,0,14.1,6.3,14.1,14.1v21.3
		C288.4,237.1,282,243.4,274.3,243.4z"/>
	<path class="st3" d="M269.5,239.2h-38.4c-7.8,0-14.1-6.4-14.1-14.2v-15.2c0-7.8,6.3-14.2,14.1-14.2h38.4c7.8,0,14.1,6.4,14.1,14.2
		V225C283.6,232.8,277.3,239.2,269.5,239.2z"/>
	<ellipse class="st3" cx="249.9" cy="367.7" rx="49.4" ry="11.6"/>
	<path class="st25" d="M212.2,360.2c9.1,1,22.6,1.6,37.7,1.6c15.1,0,28.6-0.6,37.7-1.6c-9.1-2.5-22.6-4.1-37.7-4.1
		C234.8,356.1,221.2,357.7,212.2,360.2z"/>
	<path class="st26" d="M201.4,370c4.5,5.3,24.5,9.3,48.4,9.3s44-4,48.4-9.3H201.4z"/>
	<path class="st9" d="M257.1,437.1h-14.5V318.4c0-4,3.2-7.3,7.3-7.3l0,0c4,0,7.3,3.2,7.3,7.3v118.7H257.1z"/>
	<path class="st9" d="M255,312.9h-10.2V211.1c0-2.8,2.3-5.1,5.1-5.1l0,0c2.8,0,5.1,2.3,5.1,5.1L255,312.9L255,312.9z"/>
	<path class="st18" d="M229.8,435.9h-19.3c0,0-20.6,1.9-20.6,15.6h39.9L229.8,435.9L229.8,435.9z"/>
	<g>
		<g>
			<path class="st9" d="M249.3,377.6c-0.2,0-20.3,1.7-42.4-4.8c-15.9-4.7-13.9-37.6-11.3-53.2c6.3-0.3,11-1.7,11-3.3
				c0-1.9-5.8-3.4-13.1-3.4c-7.2,0-13.1,1.5-13.1,3.4c0,1.6,4,2.9,9.5,3.3c-1.9,12.3-6.3,51.4,15,57.7c15.2,4.5,29.2,5.3,37.4,5.3
				c4.4,0,7.1-0.2,7.4-0.3L249.3,377.6z"/>
		</g>
		<g>
			<path class="st9" d="M252.6,377.6c0.2,0,20.3,1.7,42.4-4.8c15.9-4.7,13.9-37.6,11.3-53.2c-6.3-0.3-11-1.7-11-3.3
				c0-1.9,5.8-3.4,13.1-3.4c7.2,0,13.1,1.5,13.1,3.4c0,1.6-4,2.9-9.5,3.3c1.9,12.3,6.3,51.4-15,57.7c-15.2,4.5-29.2,5.3-37.4,5.3
				c-4.4,0-7.1-0.2-7.4-0.3L252.6,377.6z"/>
		</g>
	</g>
	<path class="st9" d="M258.4,445.6c0,4.7-3.8,8.5-8.5,8.5s-8.5-3.8-8.5-8.5s3.8-8.5,8.5-8.5C254.6,437.1,258.4,440.9,258.4,445.6z"
		/>
	<path class="st9" d="M258.4,314.2c0,4.7-3.8,8.5-8.5,8.5s-8.5-3.8-8.5-8.5s3.8-8.5,8.5-8.5C254.6,305.6,258.4,309.4,258.4,314.2z"
		/>
	<g>
		<path class="st9" d="M230.3,445.6c0,4.7-3.8,8.5-8.5,8.5s-8.5-3.8-8.5-8.5s3.8-8.5,8.5-8.5S230.3,440.9,230.3,445.6z"/>
		<path class="st9" d="M286.5,445.6c0,4.7-3.8,8.5-8.5,8.5s-8.5-3.8-8.5-8.5s3.8-8.5,8.5-8.5S286.5,440.9,286.5,445.6z"/>
	</g>
	<rect x="224.1" y="435.9" class="st9" width="51.7" height="6"/>
</g>
<g id="DESIGNED_BY_FREEPIK">
</g>
</svg>
