<?xml version="1.0" encoding="utf-8"?>
<!-- Generator: Adobe Illustrator 22.0.0, SVG Export Plug-In . SVG Version: 6.00 Build 0)  -->
<svg version="1.1" id="Camada_1" xmlns="http://www.w3.org/2000/svg" xmlns:xlink="http://www.w3.org/1999/xlink" x="0px" y="0px"
	 viewBox="0 0 24 24" style="enable-background:new 0 0 24 24;" xml:space="preserve">
<style type="text/css">
	.st0{fill:#FFFFFF;}
</style>
<path class="st0" d="M12,2c5.5,0,10,4.5,10,10s-4.5,10-10,10S2,17.5,2,12S6.5,2,12,2z M12,0C5.4,0,0,5.4,0,12s5.4,12,12,12
	s12-5.4,12-12S18.6,0,12,0z M12,6c-3.3,0-6,2.7-6,6c0,2.7,1.7,4.9,4.1,5.7c0.3,0.1,0.4-0.1,0.4-0.3v-1.1c-1.7,0.4-2-0.7-2-0.7
	c-0.3-0.7-0.7-0.9-0.7-0.9c-0.5-0.4,0-0.4,0-0.4c0.6,0,0.9,0.6,0.9,0.6c0.5,0.9,1.4,0.7,1.7,0.5c0.1-0.4,0.2-0.7,0.4-0.8
	c-1.3-0.2-2.7-0.7-2.7-3c0-0.7,0.2-1.2,0.6-1.6C8.7,9.9,8.5,9.3,8.8,8.5c0,0,0.5-0.2,1.6,0.6C11,9,11.5,8.9,12,8.9
	c0.5,0,1,0.1,1.5,0.2c1.1-0.8,1.6-0.6,1.6-0.6c0.3,0.8,0.1,1.4,0.1,1.6c0.4,0.4,0.6,1,0.6,1.6c0,2.3-1.4,2.8-2.7,3
	c0.2,0.2,0.4,0.6,0.4,1.1v1.6c0,0.2,0.1,0.3,0.4,0.3c2.4-0.8,4.1-3,4.1-5.7C18,8.7,15.3,6,12,6z"/>
</svg>
