<?xml version="1.0" encoding="utf-8"?>
<!-- Generator: Adobe Illustrator 22.0.0, SVG Export Plug-In . SVG Version: 6.00 Build 0)  -->
<svg version="1.1" id="Capa_1" xmlns="http://www.w3.org/2000/svg" xmlns:xlink="http://www.w3.org/1999/xlink" x="0px" y="0px"
	 viewBox="0 0 188.1 188.1" style="enable-background:new 0 0 188.1 188.1;" xml:space="preserve">
<style type="text/css">
	.st0{clip-path:url(#SVGID_2_);fill:#ECC19C;}
	.st1{clip-path:url(#SVGID_4_);fill:#ECC19C;}
	.st2{clip-path:url(#SVGID_6_);fill:#C7D4E2;}
	.st3{clip-path:url(#SVGID_8_);fill:#543E36;}
	.st4{clip-path:url(#SVGID_10_);fill:#543E36;}
	.st5{clip-path:url(#SVGID_12_);fill:#543E36;}
	.st6{clip-path:url(#SVGID_14_);fill:#1A1A1A;}
	.st7{clip-path:url(#SVGID_16_);}
	.st8{fill:#543E36;}
	.st9{clip-path:url(#SVGID_18_);fill:#ECC19C;}
	.st10{clip-path:url(#SVGID_20_);}
	.st11{fill:#435363;}
	.st12{clip-path:url(#SVGID_22_);}
	.st13{fill:#141720;}
	.st14{fill:#E7ECF2;}
</style>
<g>
	<g>
		<g>
			<defs>
				<circle id="SVGID_1_" cx="94.1" cy="97.1" r="86"/>
			</defs>
			<clipPath id="SVGID_2_">
				<use xlink:href="#SVGID_1_"  style="overflow:visible;"/>
			</clipPath>
			<path class="st0" d="M132.3,59.3v28.6c0,0.4,0,0.8,0,1.2c0,0.9-0.1,1.7-0.1,2.6c0,0.3,0,0.6-0.1,0.9c-0.1,1.2-0.3,2.4-0.5,3.6
				c-0.1,0.4-0.2,0.8-0.2,1.2c0,0.1,0,0.2,0,0.2c-0.1,0.4-0.2,0.8-0.3,1.2c0,0.2-0.1,0.4-0.1,0.6c0,0.2-0.1,0.4-0.1,0.5
				c-0.2,0.8-0.4,1.5-0.7,2.3c-0.1,0.4-0.2,0.7-0.3,1.1c0,0,0,0.1,0,0.1c-0.1,0.3-0.2,0.6-0.3,1c0,0.1-0.1,0.2-0.1,0.3
				c-0.1,0.3-0.2,0.6-0.3,0.9c-0.1,0.4-0.3,0.7-0.4,1.1c-0.1,0.3-0.3,0.6-0.4,1c0,0.1,0,0.1-0.1,0.2c-0.2,0.3-0.3,0.7-0.5,1
				c-0.2,0.3-0.3,0.7-0.5,1c-0.3,0.7-0.7,1.4-1.1,2c-0.2,0.3-0.3,0.6-0.5,0.9c-1.4,2.5-3.1,4.8-4.8,7c-0.2,0.3-0.5,0.6-0.7,0.9
				c-0.3,0.4-0.7,0.8-1.1,1.2c-0.3,0.4-0.6,0.7-1,1.1c-0.9,1-1.8,1.9-2.8,2.8c-0.2,0.2-0.4,0.4-0.6,0.5c-0.3,0.3-0.6,0.6-1,0.8
				c-0.3,0.2-0.5,0.4-0.8,0.7c-0.7,0.6-1.4,1.1-2,1.6c-0.3,0.2-0.6,0.4-0.9,0.6c-0.5,0.3-0.9,0.7-1.4,1c-0.3,0.2-0.5,0.3-0.8,0.5
				c-1,0.6-1.9,1.1-2.9,1.6c-0.2,0.1-0.5,0.2-0.7,0.3c-0.2,0.1-0.5,0.2-0.7,0.3c-0.3,0.1-0.6,0.3-0.9,0.4c-0.1,0.1-0.2,0.1-0.4,0.1
				c-0.4,0.2-0.7,0.3-1.1,0.4c-0.5,0.2-0.9,0.3-1.4,0.4c-0.3,0.1-0.6,0.2-1,0.3c0,0,0,0-0.1,0c-0.3,0.1-0.6,0.2-1,0.2
				c-0.1,0-0.2,0-0.3,0c-0.3,0-0.5,0.1-0.8,0.1c-0.4,0.1-0.8,0.1-1.1,0.1c-0.1,0-0.3,0-0.4,0c-0.3,0-0.6,0-0.9,0h0
				c-0.3,0-0.6,0-0.9,0c-0.1,0-0.2,0-0.3,0c-0.3,0-0.5,0-0.8-0.1c-0.1,0-0.1,0-0.2,0c-0.3,0-0.7-0.1-1.1-0.2c-0.3,0-0.6-0.1-0.9-0.2
				c-1.6-0.4-3.3-0.9-4.9-1.7c-1.4-0.6-2.9-1.4-4.3-2.3c-0.7-0.4-1.4-0.9-2.2-1.4c-0.4-0.3-0.7-0.5-1.1-0.8
				c-1.1-0.8-2.2-1.7-3.3-2.7c-0.3-0.3-0.6-0.5-0.9-0.8c-0.3-0.3-0.6-0.6-0.9-0.8c-0.7-0.7-1.4-1.4-2.1-2.2
				c-0.3-0.3-0.5-0.6-0.8-0.9c-0.8-0.8-1.5-1.7-2.2-2.6c-0.3-0.3-0.5-0.7-0.8-1c-0.9-1.3-1.9-2.6-2.7-3.9c-0.2-0.4-0.5-0.7-0.7-1.1
				c-0.3-0.4-0.5-0.9-0.8-1.3c-0.9-1.7-1.8-3.4-2.6-5.3c-0.1-0.3-0.2-0.5-0.3-0.8c-0.2-0.3-0.3-0.7-0.4-1c-0.2-0.5-0.4-1-0.5-1.5
				c-0.2-0.5-0.3-1-0.5-1.5c-0.2-0.5-0.3-1-0.4-1.5c-0.2-0.5-0.3-1.1-0.4-1.6c0-0.1,0-0.1,0-0.2c-0.2-0.8-0.3-1.5-0.5-2.3
				c-0.2-1-0.3-2-0.5-3.1c0-0.3-0.1-0.7-0.1-1c0-0.3-0.1-0.7-0.1-1c0-0.6-0.1-1.3-0.1-1.9c0-0.4,0-0.8,0-1.2V59.3
				c0-21.1,17.1-38.2,38.2-38.3h0c2.9,0,5.8,0.3,8.5,0.9c2.5,0.6,4.9,1.4,7.2,2.4c3.1,1.4,6,3.2,8.6,5.3c2.2,1.8,4.2,3.8,5.9,6
				C129.3,42.2,132.3,50.4,132.3,59.3z"/>
		</g>
		<g>
			<defs>
				<circle id="SVGID_3_" cx="94.1" cy="97.1" r="86"/>
			</defs>
			<clipPath id="SVGID_4_">
				<use xlink:href="#SVGID_3_"  style="overflow:visible;"/>
			</clipPath>
			<path class="st1" d="M143.9,194.6L143.9,194.6l-99.7,0v0c0-5.6,0.9-11.1,2.7-16.1c0.3-0.9,0.6-1.8,1-2.7v0
				c0.4-0.9,0.8-1.8,1.2-2.6c1.6-3.5,3.7-6.7,6.1-9.7c0.6-0.7,1.2-1.5,1.8-2.2c0.3-0.4,0.6-0.7,1-1.1c0.3-0.3,0.7-0.7,1-1
				c1.7-1.7,3.5-3.2,5.4-4.6c0.9-0.7,1.9-1.4,2.9-2c1-0.6,2-1.2,3-1.8c0,0,0,0,0,0c0.4-0.2,0.8-0.5,1.2-0.7c0.8-0.5,1.6-1,2.3-1.5
				c0.4-0.3,0.7-0.5,1.1-0.8c0.8-0.7,1.7-1.4,2.4-2.2c0.3-0.3,0.5-0.5,0.8-0.8c0.5-0.5,1-1.1,1.5-1.7c0.2-0.3,0.5-0.6,0.7-0.9
				c0.2-0.3,0.4-0.6,0.7-0.9c1.7-2.3,3-4.9,4-7.6c1.2-3.3,1.8-6.9,1.8-10.6l7.3,0l7.5,0c0,3.7,0.6,7.2,1.8,10.5c1,2.7,2.3,5.3,4,7.6
				c1.7,2.4,3.7,4.6,6.1,6.4c0.3,0.3,0.7,0.6,1,0.8c0.3,0.3,0.7,0.5,1,0.7c0.1,0.1,0.1,0.1,0.2,0.2c0.3,0.2,0.7,0.5,1,0.7
				c0.4,0.2,0.8,0.5,1.2,0.7c0.1,0,0.1,0,0.2,0.1c0.8,0.5,1.6,0.9,2.4,1.4c0.4,0.2,0.8,0.5,1.1,0.8c0.8,0.5,1.5,1,2.3,1.6
				c0,0,0,0,0,0h0c1.9,1.4,3.7,3,5.4,4.6C138.3,168.3,143.9,180.8,143.9,194.6z"/>
		</g>
		<g>
			<defs>
				<circle id="SVGID_5_" cx="94.1" cy="97.1" r="86"/>
			</defs>
			<clipPath id="SVGID_6_">
				<use xlink:href="#SVGID_5_"  style="overflow:visible;"/>
			</clipPath>
			<path class="st2" d="M143.9,194.6H44.2c0-5.6,0.9-11.1,2.7-16.1c0.3-0.9,0.6-1.8,1-2.7c0,0,0,0,0,0c0.4-0.9,0.8-1.8,1.2-2.6
				c1.6-3.5,3.7-6.7,6.1-9.7c0.6-0.7,1.2-1.5,1.8-2.2c0.3-0.4,0.6-0.7,1-1.1c0.3-0.3,0.7-0.7,1-1c1.7-1.7,3.5-3.2,5.4-4.6
				c0.9-0.7,1.9-1.4,2.9-2c1-0.6,2-1.2,3-1.8c0,0,0,0,0,0v0c0.4-0.2,0.8-0.5,1.2-0.7c1.2-0.7,2.3-1.5,3.4-2.4c0,0,0,0,0,0
				c4.9,5,11.6,8.1,19.2,8.1h0.1c7.5,0,14.3-3.1,19.2-8.1l0,0c0.7,0.6,1.4,1.1,2.1,1.6c0.1,0.1,0.1,0.1,0.2,0.1
				c0.3,0.2,0.7,0.4,1,0.7c0.4,0.2,0.8,0.5,1.2,0.7c0.1,0,0.1,0.1,0.2,0.1c0.8,0.5,1.6,0.9,2.4,1.4c0.4,0.2,0.8,0.5,1.1,0.8
				c0.8,0.5,1.5,1,2.3,1.6h0c1.9,1.4,3.7,3,5.4,4.7C138.3,168.3,143.9,180.8,143.9,194.6z"/>
		</g>
		<g>
			<defs>
				<circle id="SVGID_7_" cx="94.1" cy="97.1" r="86"/>
			</defs>
			<clipPath id="SVGID_8_">
				<use xlink:href="#SVGID_7_"  style="overflow:visible;"/>
			</clipPath>
			<path class="st3" d="M132.3,87.9c0,0.4,0,0.8,0,1.2c0,0.9-0.1,1.7-0.1,2.6c0,0.3,0,0.6-0.1,0.9c-0.1,1.2-0.3,2.4-0.5,3.6
				c-0.1,0.4-0.2,0.8-0.2,1.2c0,0.1,0,0.2,0,0.2c-0.1,0.4-0.2,0.8-0.3,1.2c0,0.2-0.1,0.4-0.2,0.7c0,0.2-0.1,0.3-0.1,0.5
				c-0.2,0.8-0.4,1.5-0.7,2.3c-0.1,0.4-0.2,0.7-0.3,1.1c0,0,0,0.1,0,0.1c-0.1,0.3-0.2,0.6-0.3,1c0,0.1-0.1,0.2-0.1,0.3
				c-0.1,0.3-0.2,0.6-0.3,0.9c-0.1,0.4-0.3,0.7-0.4,1.1c-0.1,0.3-0.3,0.6-0.4,1c0,0.1,0,0.1-0.1,0.2c-0.2,0.3-0.3,0.7-0.5,1
				c-0.2,0.3-0.3,0.7-0.5,1c-0.3,0.7-0.7,1.4-1.1,2c-0.2,0.3-0.3,0.6-0.5,0.9c-1.4,2.5-3.1,4.8-4.8,7c-0.2,0.3-0.5,0.6-0.7,0.9
				c-0.3,0.4-0.7,0.8-1.1,1.2c-0.3,0.4-0.6,0.7-1,1.1c-0.9,1-1.8,1.9-2.8,2.8c-0.2,0.2-0.4,0.4-0.6,0.5c-0.3,0.3-0.6,0.6-1,0.8
				c-0.3,0.2-0.5,0.4-0.8,0.7c-0.7,0.6-1.4,1.1-2,1.6c-0.3,0.2-0.6,0.4-0.9,0.6c-0.5,0.3-0.9,0.7-1.4,1c-0.3,0.2-0.5,0.3-0.8,0.5
				c-1,0.6-1.9,1.1-2.9,1.6c-0.2,0.1-0.5,0.2-0.7,0.3c-0.2,0.1-0.5,0.2-0.7,0.3c-0.3,0.1-0.6,0.3-0.9,0.4c-0.1,0.1-0.2,0.1-0.4,0.1
				c-0.4,0.2-0.7,0.3-1.1,0.4c-0.5,0.2-0.9,0.3-1.4,0.4c-0.3,0.1-0.6,0.2-1,0.3c0,0,0,0-0.1,0c-0.3,0.1-0.6,0.2-1,0.2
				c-0.1,0-0.2,0-0.3,0c-0.3,0-0.5,0.1-0.8,0.1c-0.4,0.1-0.8,0.1-1.1,0.1c-0.1,0-0.3,0-0.4,0c-0.3,0-0.6,0-0.9,0h0
				c-0.3,0-0.6,0-0.9,0c-0.1,0-0.2,0-0.3,0c-0.3,0-0.5,0-0.8-0.1c-0.1,0-0.1,0-0.2,0c-0.3,0-0.7-0.1-1.1-0.2c-0.3,0-0.6-0.1-0.9-0.2
				c-1.6-0.4-3.3-0.9-4.9-1.7c-1.4-0.6-2.9-1.4-4.3-2.3c-0.7-0.4-1.4-0.9-2.2-1.4c-0.4-0.3-0.7-0.5-1.1-0.8
				c-1.1-0.8-2.2-1.7-3.3-2.7c-0.3-0.3-0.6-0.5-0.9-0.8c-0.3-0.3-0.6-0.6-0.9-0.8c-0.7-0.7-1.4-1.4-2.1-2.2
				c-0.3-0.3-0.5-0.6-0.8-0.9c-0.8-0.8-1.5-1.7-2.2-2.6c-0.3-0.3-0.5-0.7-0.8-1c-0.9-1.3-1.9-2.6-2.7-3.9c-0.2-0.4-0.5-0.7-0.7-1.1
				c-0.3-0.4-0.5-0.9-0.8-1.3c-0.9-1.7-1.8-3.4-2.6-5.3c-0.1-0.3-0.2-0.5-0.3-0.8c-0.2-0.3-0.3-0.7-0.4-1c-0.2-0.5-0.4-1-0.5-1.5
				c-0.2-0.5-0.3-1-0.5-1.5c-0.2-0.5-0.3-1-0.4-1.5c-0.2-0.5-0.3-1.1-0.4-1.6c0-0.1,0-0.1,0-0.2c-0.2-0.8-0.3-1.5-0.5-2.3
				c-0.2-1-0.3-2-0.5-3.1c0-0.3-0.1-0.7-0.1-1c0-0.3-0.1-0.7-0.1-1c0-0.6-0.1-1.3-0.1-1.9c0-0.4,0-0.8,0-1.2l6.1,12l10.5,4.6
				l12.4,1.1l9.2,0.8h0.1l8.6,0.8l19.2,1.7L132.3,87.9z"/>
		</g>
		<g>
			<defs>
				<circle id="SVGID_9_" cx="94.1" cy="97.1" r="86"/>
			</defs>
			<clipPath id="SVGID_10_">
				<use xlink:href="#SVGID_9_"  style="overflow:visible;"/>
			</clipPath>
			<path class="st4" d="M60.3,62.3c-0.4,0.7-0.8,1.4-1.1,2.2c-0.1,0.3-0.3,0.6-0.4,0.9c-1.9,4.1-2.8,8.2-2.9,11.8c0,0.1,0,0.2,0,0.3
				V62.7c0-0.5,0-1,0-1.6C57.3,61.6,58.8,62,60.3,62.3z"/>
		</g>
		<g>
			<defs>
				<circle id="SVGID_11_" cx="94.1" cy="97.1" r="86"/>
			</defs>
			<clipPath id="SVGID_12_">
				<use xlink:href="#SVGID_11_"  style="overflow:visible;"/>
			</clipPath>
			<path class="st5" d="M127.9,62.3c0.6,1,1.1,2,1.6,3.1c1.9,4.2,2.8,8.4,2.9,12.1V62.7c0-0.5,0-1,0-1.5
				C130.9,61.6,129.4,61.9,127.9,62.3z"/>
		</g>
		<g>
			<defs>
				<circle id="SVGID_13_" cx="94.1" cy="97.1" r="86"/>
			</defs>
			<clipPath id="SVGID_14_">
				<use xlink:href="#SVGID_13_"  style="overflow:visible;"/>
			</clipPath>
			<path class="st6" d="M127.8,66.1c0-0.2-0.1-0.3-0.3-0.3c-1.4-0.2-7.4-1-14-1c-7.4,0-17,2.3-18.7,2.3h-1.5c-0.8,0-3.3-0.5-6.5-1
				c-3.7-0.6-8.3-1.3-12.2-1.3c-4.8,0-9.3,0.5-12,0.8c-1,0.1-1.7,0.2-2,0.3c-0.2,0-0.3,0.2-0.3,0.3l-0.1,4c0,0.1,0.1,0.3,0.2,0.3
				l0.5,0.2c0.7,0.3,0.6,12.3,4.2,15.3c2.1,1.8,4,2.8,12,2.8c4.6,0,7.5-1.2,10.3-5c2-2.7,3.8-9,3.8-9c0.5-2.6,2.5-2.8,2.8-2.8
				c0,0,0,0,0,0c0.1,0,2.3,0,2.8,2.8c0,0,1.8,6.3,3.8,9c2.8,3.7,5.7,5,10.3,5c8,0,9.9-1,12-2.8c3.6-3,3.5-15,4.2-15.3l0.5-0.2
				c0.1-0.1,0.2-0.2,0.2-0.3L127.8,66.1z M87.5,80.3c-1.2,2.8-4.2,6.4-8.5,6.6c-12.8,0.6-13.4-2.9-14.2-5.8
				c-0.8-2.8-1.1-5.3-0.7-8.2c0.3-2.8,1.1-4.5,2.3-5.3c0.6-0.4,1.2-0.7,2.7-0.9c1.4-0.2,3.5-0.3,7.1-0.3c2.1,0,4,0.2,5.7,0.4
				c4.6,0.7,7.7,2.3,7.7,3.8C89.5,71.7,89.2,76.2,87.5,80.3z M123.4,81.1c-0.8,2.8-1.4,6.4-14.2,5.8c-4.3-0.2-7.3-3.8-8.5-6.6
				c-1.7-4.1-2-8.6-2-9.7c0-2.1,5.8-4.3,13.4-4.3c7.5,0,8.7,0.6,9.8,1.3c1.3,0.8,2,2.5,2.3,5.3C124.5,75.8,124.2,78.3,123.4,81.1z"
				/>
		</g>
		<g>
			<defs>
				<circle id="SVGID_15_" cx="94.1" cy="97.1" r="86"/>
			</defs>
			<clipPath id="SVGID_16_">
				<use xlink:href="#SVGID_15_"  style="overflow:visible;"/>
			</clipPath>
			<g class="st7">
				<path class="st8" d="M94.1,93.9l0,9.3l0,3.2v2.5l0,8.5v0l0,0h0l0,0l-37-18.8c0-0.1,0-0.1,0-0.2c-0.2-0.8-0.3-1.5-0.5-2.3
					c-0.2-1-0.3-2-0.5-3.1c0-0.3-0.1-0.7-0.1-1c0-0.3-0.1-0.7-0.1-1c0-0.6-0.1-1.3-0.1-1.9c0-0.4,0-0.8,0-1.2V76.7
					c0,0.2,0,0.3,0,0.5c0.1,2.7,0.5,5.7,1.3,8.8c0.6,2.3,1.5,4.5,2.4,6.5v0c2.5,5.1,5.8,8.6,8.8,9.2c0.2,0,0.4,0,0.6,0.1
					c1.2,0.1,2.4,0.2,3.7,0.2c4.8,0,9.1-3.9,11.7-5.4c0,0,0,0,0.1,0c0.1-0.1,0.3-0.2,0.4-0.3c0,0,0.1,0,0.1-0.1
					C87.2,94.8,90.4,94,94.1,93.9L94.1,93.9L94.1,93.9z"/>
				<path class="st8" d="M132.4,76.7l0,11.2c0,2.8-0.3,5.6-0.8,8.3c-0.2,1.1-0.4,2.1-0.7,3.2l-8.7,12.5l-28.1,5.6h0l0,0v0l0-23.5
					h0.1c3.6,0,6.9,0.8,9.1,2.1c0,0,0.1,0,0.1,0.1c0.1,0.1,0.3,0.2,0.4,0.3c0,0,0,0,0,0c2.7,1.6,6.9,5.4,11.7,5.4
					c1.3,0,2.5-0.1,3.7-0.2c0.2,0,0.4,0,0.6-0.1c3-0.6,6.3-4,8.8-9.2v0c0.9-1.9,1.7-4.1,2.4-6.5c0.8-3.1,1.3-6.1,1.3-8.9
					C132.4,76.9,132.4,76.8,132.4,76.7z"/>
			</g>
		</g>
		<g>
			<defs>
				<circle id="SVGID_17_" cx="94.1" cy="97.1" r="86"/>
			</defs>
			<clipPath id="SVGID_18_">
				<use xlink:href="#SVGID_17_"  style="overflow:visible;"/>
			</clipPath>
			<ellipse class="st9" cx="94.1" cy="106.1" rx="9.4" ry="2.9"/>
		</g>
		<g>
			<defs>
				<circle id="SVGID_19_" cx="94.1" cy="97.1" r="86"/>
			</defs>
			<clipPath id="SVGID_20_">
				<use xlink:href="#SVGID_19_"  style="overflow:visible;"/>
			</clipPath>
			<g class="st10">
				<path class="st11" d="M66.7,152.9v51.7h-4v-48.8c0.5-0.4,1.1-0.9,1.6-1.3C65.1,154,65.9,153.5,66.7,152.9z"/>
				<polygon class="st11" points="121.5,152.9 121.5,194.6 121.5,204.6 125.4,204.6 125.4,194.6 125.4,155.9 				"/>
			</g>
		</g>
		<g>
			<defs>
				<circle id="SVGID_21_" cx="94.1" cy="97.1" r="86"/>
			</defs>
			<clipPath id="SVGID_22_">
				<use xlink:href="#SVGID_21_"  style="overflow:visible;"/>
			</clipPath>
			<g class="st12">
				<g>
					<polygon class="st13" points="83.1,149.8 94.1,162.9 105,149.8 					"/>
					<path class="st13" d="M94.1,217.2h-6.5l4.7-60.2c0.2,0.8,3.4,0.8,3.6,0l4.7,60.2H94.1z"/>
				</g>
				<g>
					<path class="st14" d="M94.1,149.7L94.1,149.7L94.1,149.7l-4.6,7.7l-4.2,7.1l-11.5-15.9c0.4-0.3,0.7-0.5,1.1-0.8c0,0,0,0,0,0
						c2.3-1.8,4.4-4,6.1-6.4L94.1,149.7L94.1,149.7z"/>
					<path class="st14" d="M114.4,148.5l-11.5,15.9l-4.2-7.1l-4.5-7.6l0-0.1l13.2-8.4c1.7,2.4,3.7,4.6,6.1,6.4
						C113.7,148,114,148.3,114.4,148.5z"/>
				</g>
			</g>
		</g>
		<g>
			<path class="st8" d="M134.8,11.7c-0.5-1-1.6-1.7-2.7-1.5c-6.4,0.9-14.2-0.6-22.4-2.3c-13.8-2.8-28-5.6-39.1,2.3
				c-0.2,0-0.3,0-0.5,0c-11.4,0-19.4,9.5-19.4,23c0,11,4.9,32.1,5.1,33c0.3,1.1,1.2,1.9,2.4,2c0,0,0.1,0,0.1,0
				c1.1,0,2.1-0.7,2.4-1.8L68,43.1c30.5-3.5,50.8,5.2,54.8,7.2l4.8,11.4c0.4,1,1.4,1.7,2.5,1.6c1.1,0,2-0.8,2.3-1.8
				C140.1,37.5,137.3,17.2,134.8,11.7z"/>
		</g>
	</g>
</g>
</svg>
