<?xml version="1.0" encoding="utf-8"?>
<!-- Generator: Adobe Illustrator 22.0.0, SVG Export Plug-In . SVG Version: 6.00 Build 0)  -->
<svg version="1.1" id="Camada_1" xmlns="http://www.w3.org/2000/svg" xmlns:xlink="http://www.w3.org/1999/xlink" x="0px" y="0px"
	 viewBox="0 0 800 600" style="enable-background:new 0 0 800 600;" xml:space="preserve">
<style type="text/css">
	.st0{fill:none;stroke:#716F82;stroke-width:7;stroke-miterlimit:10;}
	.st1{fill:#072050;}
	.st2{fill:#747282;}
	.st3{fill:#2D2D3A;}
	.st4{fill:#FFFFFF;}
	.st5{fill:#A29FB0;}
	.st6{fill:#6E89C4;}
	.st7{fill:#EA5444;}
	.st8{fill:#FFC543;}
	.st9{fill:#A2CC3B;}
	.st10{fill:#313D6E;}
	.st11{fill:#678C6E;}
	.st12{opacity:0.55;fill:#C5CBED;enable-background:new    ;}
	.st13{fill:#7C4B39;}
	.st14{fill:#FCBBA4;}
	.st15{fill:#FFC7B0;}
	.st16{fill:#081344;}
	.st17{opacity:0.2;fill:#081344;enable-background:new    ;}
	.st18{fill:none;}
	.st19{fill:#716F82;}
	.st20{fill:#B1AEC1;}
	.st21{fill:#585668;}
	.st22{fill:#DDDDDD;}
	.st23{fill:#767684;}
	.st24{fill:#1F3468;}
	.st25{fill:#ABA9C4;}
	.st26{fill:#4A4960;}
	.st27{fill:#E79271;}
	.st28{fill:#A5483C;}
	.st29{fill:#84352F;}
	.st30{fill:#7F3954;}
	.st31{fill:#6E3856;}
	.st32{fill:#DF7D54;}
	.st33{fill:none;stroke:#081344;stroke-width:1.4933;stroke-linecap:round;stroke-miterlimit:10;}
	.st34{fill:#1C1C2D;}
	.st35{fill:#A0523A;}
	.st36{fill:#25253A;}
	.st37{fill:#9F293B;}
	.st38{fill:#F14747;}
	.st39{opacity:0.32;fill:#25253A;enable-background:new    ;}
	.st40{fill:#ECEEF0;}
	.st41{opacity:0.55;fill:#CDD6F9;enable-background:new    ;}
	.st42{fill:#FC4F42;}
	.st43{opacity:0.79;fill:#CE2D29;enable-background:new    ;}
	.st44{fill:#6075B0;}
	.st45{fill:#794061;}
	.st46{fill:#072859;}
	.st47{fill:#F3885E;}
	.st48{fill:#FFBE62;}
	.st49{fill:#FBAF3D;}
	.st50{fill:#FFD72E;}
	.st51{fill:#F38154;}
	.st52{fill:#709B2C;}
	.st53{fill:#4C842F;}
	.st54{fill:none;stroke:#081344;stroke-width:4.5943;stroke-miterlimit:10;}
	.st55{fill:#517F38;}
	.st56{fill:#3B6837;}
	.st57{fill:#65B15B;}
	.st58{fill:#62324A;}
</style>
<line class="st0" x1="9.7" y1="556.3" x2="789.6" y2="556.3"/>
<g>
	<rect x="122.5" y="153.3" class="st1" width="66.1" height="142.2"/>
	<g>
		<path class="st2" d="M49.1,245.6h212V108.7c0-4.8-3.9-8.7-8.7-8.7H57.8c-4.8,0-8.7,3.9-8.7,8.7C49.1,108.7,49.1,245.6,49.1,245.6z
			"/>
		<path class="st2" d="M69.5,266.8h175.4c10.1,0,18.3-8.2,18.3-18.3v-7h-212v7C51.1,258.6,59.3,266.8,69.5,266.8z"/>
		<path class="st3" d="M268.6,108.6v136.9l-52-0.8l-54.5-0.9l-17.2-0.3l-55-0.9l-33.3-0.5V108.6c0-4.8,3.9-8.7,8.7-8.7H260
			C264.7,100,268.6,103.9,268.6,108.6z"/>
		<path class="st4" d="M64.4,112.5v120.8c0,0.4,0.4,0.8,0.8,0.8h194.6c0.4,0,0.8-0.4,0.8-0.8V112.5c0-0.4-0.4-0.8-0.8-0.8H65.3
			C64.8,111.7,64.4,112.1,64.4,112.5z"/>
		<path class="st5" d="M74.9,266.8h175.4c10.1,0,18.3-8.2,18.3-18.3v-7h-212v7C56.6,258.6,64.8,266.8,74.9,266.8z"/>
	</g>
	<path class="st5" d="M120.9,296h88.6c2.7,0,4.9-2.2,4.9-4.9l0,0c0-2.7-2.2-4.9-4.9-4.9h-88.6c-2.7,0-4.9,2.2-4.9,4.9l0,0
		C116,293.8,118.2,296,120.9,296z"/>
	<g>
		<path class="st6" d="M251.3,133H77c-1.5,0-2.6-1.2-2.6-2.6v-10.2c0-1.5,1.2-2.6,2.6-2.6h174.3c1.5,0,2.6,1.2,2.6,2.6v10.2
			C254,131.8,252.8,133,251.3,133z"/>
		<g>
			<g>
				<path class="st7" d="M88,125c0,1.9-1.5,3.4-3.3,3.4s-3.3-1.5-3.3-3.4s1.5-3.4,3.3-3.4C86.5,121.7,88,123.2,88,125z"/>
			</g>
		</g>
		<g>
			<g>
				<ellipse class="st8" cx="96.7" cy="125" rx="3.3" ry="3.4"/>
			</g>
		</g>
		<g>
			<g>
				<ellipse class="st9" cx="108.7" cy="125" rx="3.3" ry="3.4"/>
			</g>
		</g>
		<path class="st10" d="M133.8,160H75.6c-0.9,0-1.6-0.7-1.6-1.6v-17.8c0-0.9,0.7-1.6,1.6-1.6h58.2c0.9,0,1.6,0.7,1.6,1.6v17.8
			C135.4,159.3,134.7,160,133.8,160z"/>
		<path class="st11" d="M205.3,186.5H147c-0.9,0-1.6-0.7-1.6-1.6v-17.8c0-0.9,0.7-1.6,1.6-1.6h58.2c0.9,0,1.6,0.7,1.6,1.6v17.8
			C206.9,185.8,206.2,186.5,205.3,186.5z"/>
		<path class="st11" d="M252.4,160h-35.2c-0.9,0-1.6-0.7-1.6-1.6v-17.8c0-0.9,0.7-1.6,1.6-1.6h35.2c0.9,0,1.6,0.7,1.6,1.6v17.8
			C254,159.3,253.3,160,252.4,160z"/>
		<path class="st7" d="M252.4,186.9h-35.2c-0.9,0-1.6-0.7-1.6-1.6v-17.8c0-0.9,0.7-1.6,1.6-1.6h35.2c0.9,0,1.6,0.7,1.6,1.6v17.8
			C254,186.2,253.3,186.9,252.4,186.9z"/>
		<g>
			<rect x="145.9" y="155.9" class="st1" width="61.4" height="1.5"/>
			<rect x="145.9" y="150.5" class="st1" width="61.4" height="1.5"/>
			<rect x="145.9" y="145.2" class="st1" width="61.4" height="1.5"/>
			<rect x="145.9" y="139.8" class="st1" width="61.4" height="1.5"/>
		</g>
		<path class="st7" d="M133.8,212.5H75.6c-0.9,0-1.6-0.7-1.6-1.6v-17.8c0-0.9,0.7-1.6,1.6-1.6h58.2c0.9,0,1.6,0.7,1.6,1.6v17.8
			C135.4,211.8,134.7,212.5,133.8,212.5z"/>
		<g>
			<rect x="145.9" y="208.3" class="st1" width="61.4" height="1.5"/>
			<rect x="145.9" y="203" class="st1" width="61.4" height="1.5"/>
			<rect x="145.9" y="197.6" class="st1" width="61.4" height="1.5"/>
			<rect x="145.9" y="192.3" class="st1" width="61.4" height="1.5"/>
		</g>
		<g>
			<rect x="73.7" y="181.5" class="st1" width="61.4" height="1.5"/>
			<rect x="73.7" y="176.1" class="st1" width="61.4" height="1.5"/>
			<rect x="73.7" y="170.8" class="st1" width="61.4" height="1.5"/>
			<rect x="73.7" y="165.5" class="st1" width="61.4" height="1.5"/>
		</g>
	</g>
	<polygon class="st12" points="227.8,100 162.1,241.7 89.8,241.7 155,100 	"/>
</g>
<g>
	<path class="st13" d="M275.4,29.4l13.6,8.4c9.8,6.1,13.3,18.7,8.1,29c-1,2-1.7,3.4-1.6,3.2c0.5-0.6-20.8-40.4-20.8-40.4"/>
	<path class="st14" d="M240,159.3h-7c-6.4,0-11.7-5.3-11.7-11.7v-33c0-6.4,5.3-11.7,11.7-11.7h7c6.4,0,11.7,5.3,11.7,11.7v33
		C251.7,154,246.5,159.3,240,159.3z"/>
	<path class="st13" d="M295.2,70.1c0.3,2.7-12.1,7.2-12.3,10l2,5.6c-15.3-5.5-1.8,2.9-1.8,2.9c-4.5,13.5-3,20.9-15.9,26.1
		c-6.5,2.6-13.6,3.7-21,3.2c-9.9-0.7-18.7,2.4-25.9-1c-1.5-0.7-2.9-1.7-4.2-3c-2.5-2.5-4.8-5.3-6.7-8.3c-0.7-1.2-1.4-2.4-2.1-3.6
		c-3.9-7.6-11.9-29.7-11.3-38.8c1.8-25.7,26.4-42.9,54.8-41c0.7,0.1,1.4,0.1,2.2,0.1c15.3,1.1,28.4,9.2,36.4,21
		c0.4,0.6,0.8,1.3,1.2,1.9l0,0c2.3,3.7,3.5,19.8,3.5,19.8C294.7,66.6,295,68.3,295.2,70.1z"/>
	<path class="st15" d="M294.1,78.3l-0.4,7.1l-0.6,11.7l-1,4.1c-0.1,1.8-1,11.5-1.4,13.3c-3.2,16.6-14.1,20.1-31,22.2
		c-0.5,0.1-1,0.1-1.5,0.1c-1.8,0.2-3.6,0.2-5.5,0.1c-1.8-0.1-3.6-0.3-5.3-0.6c-3.4-0.6-6.6-1.7-9.6-3.1l0,0
		c-7.5-3.5-13.6-9.3-17.6-16.3c-3-5.3-4.8-11.4-5-17.8c0-0.4,0-0.9,0-1.3c0-0.5,0-1,0-1.6v-0.3v-1.3l0.2-3.3l0.6-11.5v-0.1l0,0
		l0.1-2.1l0.1-1.7l0.1-1.5V74c0.2-2.7,0.7-5.2,1.5-7.7c0.5-1.7,1.2-3.4,1.9-5c0.1-0.3,0.2-0.5,0.3-0.7c0.6-1.3,1.3-2.6,2-3.9l0,0
		c2.8-4.8,6.7-8.9,11.2-12c0.9-0.6,1.8-1.3,2.8-1.8c6.6-3.9,14.3-5.9,22.5-5.5c6.8,0.4,11.8,2.4,17.3,5.7c3.3,2,6.3,4.4,8.9,7.3
		c3.7,4,6,8.7,7.8,13.8c0.1,0.3,0.2,0.6,0.3,0.9c0.5,1.7,0.9,3.4,1.1,5.2C294.2,72.7,294.2,75.5,294.1,78.3z"/>
	<path class="st13" d="M279.8,43.3c8.3,22.8-13.5,20.9-14.5,31.4c-0.1,1.2-0.5,2.9-0.8,11.5l-1.7,5.4c-0.5,1.7-2,2.8-3.8,2.8
		c-2.2,0-3.9-1.8-3.9-3.9v-0.1l0.2-8.5l-4.2,11.3c-3.1,8.1-7.7,15.5-13.6,21.7c-4.9,5.1-10.6,9.5-16.9,12.8c0,0-26.6-15.8-26.6-51.9
		c0-2.9,0.2-5.9,0.5-9c0.3-2.8,0.8-5.4,1.4-7.9c11-44.8,66.1-29.5,71.4-27.5C272.9,33.4,279.8,43.3,279.8,43.3z"/>
	<path class="st15" d="M298.8,102.5c0,0.1,0,0.6,0,0.6c-0.1,2.5-2.2,4.4-7.5,4.3l0.7-19.3C296.3,94.6,298.4,98.4,298.8,102.5z"/>
	<path class="st13" d="M295.9,79.2h-11.8c-1.4,0-2.5-1.1-2.5-2.5l0,0c0-1.4,1.1-2.5,2.5-2.5h11.8c1.4,0,2.5,1.1,2.5,2.5l0,0
		C298.4,78,297.3,79.2,295.9,79.2z"/>
	<path class="st16" d="M289.3,88L289.3,88c-1,0-1.8-0.8-1.8-1.8v-2.6c0-1,0.8-1.8,1.8-1.8l0,0c1,0,1.8,0.8,1.8,1.8v2.6
		C291.1,87.2,290.3,88,289.3,88z"/>
	<path class="st17" d="M237.5,114.8c-4.9,5.1-10.6,9.5-16.9,12.8c0,0-26.6-15.8-26.6-51.9c0-2.9,0.2-5.9,0.5-9
		c0.3-2.8,0.8-5.4,1.4-7.9c1.2,6.9,4.3,17.3,12.2,30.1C220.1,108.5,233.2,113.6,237.5,114.8z"/>
	<path class="st13" d="M291.2,113.3l-0.4,13.5c0,11.5-13.6,16.1-23.7,15L251,140l1.6-13.9l4.4-26.7l-7.1-19.9l14.6,6.1l0,0
		c-1.1,15.8,10.2,28.6,26.1,27.9L291.2,113.3z"/>
	<path class="st14" d="M254.1,79c1.6,0,2.9,1.3,2.9,3l-0.1,10l-0.1,8.8h-3.4c-0.3,0-0.5,0-0.7,0c-5.8-0.4-10.3-5.5-10.3-11.2
		c0-3,1.3-5.5,3.3-7.5c1.8-1.8,4.2-2.8,6.9-2.9l0,0c0.3,0,0.6-0.1,0.9,0L254.1,79z"/>
	<g>
		<rect x="150.7" y="372.2" class="st16" width="92.6" height="17.1"/>
		<line class="st18" x1="119.2" y1="531.5" x2="119.2" y2="538"/>
		<rect x="504.9" y="373.6" class="st19" width="84.8" height="17.1"/>
		<rect x="576" y="315.6" class="st19" width="19.3" height="240.5"/>
		<rect x="498.5" y="314.1" class="st20" width="19.3" height="241.9"/>
		<rect x="498.5" y="304.4" class="st19" width="19.3" height="103.2"/>
		<rect x="42.1" y="373.6" class="st19" width="84.8" height="17.1"/>
		<rect x="113.3" y="315.6" class="st19" width="19.3" height="240.5"/>
		<rect x="35.9" y="314.1" class="st19" width="19.3" height="241.9"/>
		<g>
			<rect x="392.8" y="154.1" class="st21" width="63.7" height="137"/>
			<g>
				<g>
					<path class="st22" d="M524.2,246H314.9V118.2c0-4.6,3.7-8.4,8.4-8.4h192.6c4.6,0,8.4,3.7,8.4,8.4V246H524.2z"/>
					<path class="st22" d="M504.5,266.5h-174c-9.7,0-17.6-7.9-17.6-17.6v-6.8h209.3v6.8C522.2,258.6,514.3,266.5,504.5,266.5z"/>
					<path class="st23" d="M517,118.2V246H307.7V118.2c0-4.6,3.7-8.3,8.4-8.3h192.6C513.2,109.9,517,113.6,517,118.2z"/>
					<path class="st24" d="M509.4,117.9v116.3c0,0.4-0.4,0.8-0.8,0.8H316.1c-0.4,0-0.8-0.4-0.8-0.8V117.9c0-0.4,0.4-0.8,0.8-0.8
						h192.5C509,117.2,509.4,117.5,509.4,117.9z"/>
					<path class="st25" d="M517,242.1v6.8c0,7.1-4.2,13.2-10.2,16c-2.3,1.1-4.8,1.6-7.5,1.6h-174c-9.7,0-17.6-7.9-17.6-17.6v-6.8
						H517z"/>
				</g>
				<g>
					<g>
						<rect x="326.5" y="131.5" class="st6" width="65" height="2.3"/>
						<rect x="419.8" y="131.5" class="st22" width="30.8" height="2.3"/>
						<rect x="464.2" y="131.5" class="st8" width="30.8" height="2.3"/>
						<rect x="453.3" y="131.5" class="st6" width="7.3" height="2.3"/>
						<rect x="394.6" y="131.5" class="st7" width="21.6" height="2.3"/>
					</g>
					<g>
						<rect x="326.5" y="189.2" class="st6" width="65" height="2.3"/>
						<rect x="419.8" y="189.2" class="st22" width="30.8" height="2.3"/>
						<rect x="464.2" y="189.2" class="st8" width="30.8" height="2.3"/>
						<rect x="453.3" y="189.2" class="st6" width="7.3" height="2.3"/>
						<rect x="394.6" y="189.2" class="st5" width="21.6" height="2.3"/>
					</g>
					<g>
						<rect x="430" y="169.9" class="st6" width="65" height="2.3"/>
						<rect x="371" y="169.9" class="st22" width="30.8" height="2.3"/>
						<rect x="326.6" y="169.9" class="st8" width="30.8" height="2.3"/>
						<rect x="360.9" y="169.9" class="st6" width="7.3" height="2.3"/>
						<rect x="405.4" y="169.9" class="st5" width="21.6" height="2.3"/>
					</g>
					<g>
						<rect x="326.5" y="141.1" class="st7" width="24.4" height="2.3"/>
						<rect x="399.4" y="141.1" class="st6" width="10.5" height="2.3"/>
						<rect x="443.9" y="141.1" class="st22" width="51.1" height="2.3"/>
						<rect x="412.6" y="141.1" class="st6" width="27.6" height="2.3"/>
						<rect x="354" y="141.1" class="st6" width="41.9" height="2.3"/>
					</g>
					<g>
						<rect x="326.5" y="198.8" class="st6" width="24.4" height="2.3"/>
						<rect x="399.4" y="198.8" class="st6" width="10.5" height="2.3"/>
						<rect x="443.9" y="198.8" class="st6" width="51.1" height="2.3"/>
						<rect x="412.6" y="198.8" class="st6" width="27.6" height="2.3"/>
						<rect x="354" y="198.8" class="st6" width="41.9" height="2.3"/>
					</g>
					<g>
						<rect x="326.5" y="179.6" class="st7" width="24.4" height="2.3"/>
						<rect x="399.4" y="179.6" class="st6" width="10.5" height="2.3"/>
						<rect x="443.9" y="179.6" class="st22" width="51.1" height="2.3"/>
						<rect x="412.6" y="179.6" class="st6" width="27.6" height="2.3"/>
						<rect x="354" y="179.6" class="st6" width="41.9" height="2.3"/>
					</g>
					<g>
						<rect x="326.5" y="150.7" class="st22" width="24.4" height="2.3"/>
						<rect x="354" y="150.7" class="st6" width="41.9" height="2.3"/>
					</g>
					<g>
						<rect x="371.5" y="160.3" class="st22" width="24.4" height="2.3"/>
						<rect x="326.6" y="160.3" class="st6" width="41.9" height="2.3"/>
					</g>
				</g>
			</g>
			<path class="st26" d="M455,294.6h-85.3c-2.6,0-4.7-2.1-4.7-4.7l0,0c0-2.6,2.1-4.7,4.7-4.7H455c2.6,0,4.7,2.1,4.7,4.7l0,0
				C459.8,292.5,457.6,294.6,455,294.6z"/>
		</g>
		<path class="st27" d="M611.8,315.4H342.7v-13.9c0-4.2,3.4-7.6,7.6-7.6h253.9c4.2,0,7.6,3.4,7.6,7.6V315.4z"/>
		<g>
			<path class="st28" d="M533.3,301.5v13.9H15.2v-13.9c0-4.2,3.4-7.6,7.6-7.6h502.9C529.9,293.9,533.3,297.3,533.3,301.5z"/>
			<path class="st29" d="M383.4,293.9c-4.1,6.7-9,14.7-13.2,21.5H243.5l1.7-21.5H383.4z"/>
		</g>
		<g>
			<rect x="638.8" y="389.3" class="st30" width="133.1" height="166.8"/>
			<rect x="591.6" y="389.3" class="st31" width="130.8" height="166.8"/>
			<g>
				<rect x="590.1" y="401.7" class="st32" width="124.1" height="45.1"/>
				<rect x="590.1" y="454.7" class="st32" width="124.1" height="45.1"/>
				<rect x="590.1" y="507.7" class="st32" width="124.1" height="48.4"/>
			</g>
			<g>
				<path class="st4" d="M629.5,426.7h31c1.3,0,2.4-1.1,2.4-2.4l0,0c0-1.3-1.1-2.4-2.4-2.4h-31c-1.3,0-2.4,1.1-2.4,2.4l0,0
					C627.1,425.6,628.2,426.7,629.5,426.7z"/>
				<path class="st4" d="M628.3,479.3h31c1.3,0,2.4-1.1,2.4-2.4l0,0c0-1.3-1.1-2.4-2.4-2.4h-31c-1.3,0-2.4,1.1-2.4,2.4l0,0
					C625.9,478.2,627,479.3,628.3,479.3z"/>
				<path class="st4" d="M628.3,531.9h31c1.3,0,2.4-1.1,2.4-2.4l0,0c0-1.3-1.1-2.4-2.4-2.4h-31c-1.3,0-2.4,1.1-2.4,2.4l0,0
					C625.9,530.8,627,531.9,628.3,531.9z"/>
			</g>
		</g>
		<g>
			<g>
				<path class="st30" d="M287.9,566.3l62.2,0.7c3.7,0,6.7-2.9,6.8-6.6l0,0c0-2.9-1.7-5.4-4.4-6.4l-30.7-11.1l-33.6,0.5L287.9,566.3
					z"/>
				<path class="st16" d="M351.4,568.7l-63-0.2V564l67.5,0.2l0,0C355.9,566.7,353.9,568.7,351.4,568.7z"/>
			</g>
			<g>
				<line class="st33" x1="321" y1="551.9" x2="328.4" y2="544.1"/>
				<line class="st33" x1="326.4" y1="554.2" x2="333.7" y2="546.4"/>
				<line class="st33" x1="331.5" y1="557.2" x2="339.8" y2="548.4"/>
			</g>
			<g>
				<path class="st34" d="M285.8,545.8c3.6-60.7,2.6-116.8-2.1-128.1c-4.8-7.1-42.6-22.3-80.4-24l17.7-38.6
					c49.5,2.5,84.9,21.1,97.3,42.3c5.2,9,9.8,27,7.3,88.9c-1.3,32.4-2.9,57.8-2.9,57.8L285.8,545.8z"/>
			</g>
			<g>
				<path class="st35" d="M343.3,567.8l62.2,0.4c3.7,0,6.7-3,6.8-6.7l0,0c0-2.9-1.8-5.4-4.5-6.4l-30.7-10.9l-33.6,0.6L343.3,567.8z"
					/>
				<path class="st16" d="M406.8,570h-64v-4.5h68.5l0,0C411.3,567.9,409.2,570,406.8,570z"/>
			</g>
			<g>
				<line class="st33" x1="376.4" y1="553.3" x2="383.7" y2="545.5"/>
				<line class="st33" x1="381.7" y1="555.6" x2="389" y2="547.8"/>
				<line class="st33" x1="386.8" y1="558.6" x2="395.1" y2="549.8"/>
			</g>
			<g>
				<path class="st34" d="M341.1,545.8c3.6-60.7,2.6-116.8-2.1-128.1c-4.8-7.1-42.6-22.3-80.4-24l17.7-38.6
					c49.5,2.5,84.9,21.1,97.3,42.3c5.2,9,9.8,27,7.3,88.9c-1.3,32.4-2.9,57.8-2.9,57.8L341.1,545.8z"/>
			</g>
			<path class="st34" d="M287.9,366.2c0,6.8-2.4,13-6.4,17.9c-5.1,6.2-12.9,10.2-21.7,10.2h-47.2c-1.4,0-2.8-0.1-4.1-0.3
				c-3.5-0.5-6.7-1.6-9.6-3.3c-0.5-0.3-1-0.6-1.5-0.9c-7.7-5-12.8-13.7-12.8-23.5l0.9-15l101.7-0.9L287.9,366.2z"/>
			<g>
				<g>
					<g>
						<path class="st14" d="M320.3,286.2l24.3-3.9c1.8-0.3,3-2,2.7-3.7l0,0c-0.3-1.8-2-3-3.7-2.7l-24.3,3.9c-1.8,0.3-3,2-2.7,3.7
							l0,0C316.8,285.3,318.5,286.5,320.3,286.2z"/>
						<path class="st14" d="M328,292.8l19.5-3.1c1.8-0.3,3-2,2.7-3.7l0,0c-0.3-1.8-2-3-3.7-2.7l-19.5,3.1c-1.8,0.3-3,2-2.7,3.7l0,0
							C324.6,291.9,326.3,293.1,328,292.8z"/>
						<path class="st14" d="M323.5,301.4l23.1-3.7c1.8-0.3,3-2,2.7-3.7l0,0c-0.3-1.8-2-3-3.7-2.7l-23.1,3.7c-1.8,0.3-3,2-2.7,3.7
							l0,0C320.1,300.4,321.7,301.6,323.5,301.4z"/>
					</g>
					<path class="st14" d="M330.8,280c-0.3,0-3.2,0-6.5-0.1c-5.6-0.1-11.1,1.1-16.1,3.6l-9.6,4.7c0,0,5.5,16.3,6.3,16.4
						c18.5,3.3,24.8-5.1,24.8-5.1L330.8,280z"/>
				</g>
				<rect x="308.3" y="279.9" class="st4" width="8.2" height="26.7"/>
			</g>
			<g>
				<path class="st34" d="M254.4,309.5c-19.4,0-37.1-11.3-45.2-28.9l-0.4-0.9l-25.3-77.4l31.2-10.2l24.7,75.4
					c2.9,5.6,8.8,9.2,15.2,9.1l53.8-0.5l0.3,32.9l-53.8,0.5C254.8,309.5,254.6,309.5,254.4,309.5z"/>
			</g>
			<g>
				<g>
					<path class="st14" d="M430.1,277.6c-2-3.6-5-6.5-8.7-8.3h-0.1c-5-2.5-10.5-3.7-16.1-3.6l-10.7,0.2c0,0-2.7,23.2-2.6,22.4
						c0.3-1.5,26.1-1.1,38-0.9c2.6,0.1,4.2-2.7,3-4.9L430.1,277.6z"/>
				</g>
				<rect x="388" y="264.1" class="st4" width="10.2" height="27.3"/>
			</g>
			<g>
				<path class="st36" d="M338.1,294.5c-19.4,0-37.1-11.3-45.2-28.9l-36.5-79l29.8-13.8l36.5,79c2.8,6,8.8,9.9,15.5,9.8l53.8-0.5
					l0.3,32.9l-53.8,0.5C338.4,294.5,338.2,294.5,338.1,294.5z"/>
			</g>
			<path class="st36" d="M296.6,202.1l-0.6,69l-0.8,87.8c0,0-1.9,2.1-7.5,5.1c-4.9,2.6-12.6,5.8-24.3,8.8
				c-13.7,3.5-32.9,4.1-49.4,3.7c-18.1-0.4-32.9-2-32.9-2l0.4-172.4c0-24.3,17.6-44.4,40.7-48.5c2.8-0.5,5.6-0.7,8.6-0.7h16.6
				C274.5,152.9,296.6,174.9,296.6,202.1z"/>
			<g>
				<g>
					<rect x="219.8" y="428.4" class="st20" width="16.6" height="95.4"/>
					<path class="st19" d="M219.8,433.8v20.9l16.6-6.1v-14.1C232.2,434.3,224.2,434,219.8,433.8z"/>
				</g>
				<path class="st3" d="M279.2,436.6h-99.5c-5.1,0-9.3-4.2-9.3-9.3l0,0c0-5.1,4.2-9.3,9.3-9.3h99.5c5.1,0,9.3,4.2,9.3,9.3l0,0
					C288.5,432.5,284.3,436.6,279.2,436.6z"/>
				<g>
					<g>
						<path class="st3" d="M298.5,554.6h-10.4c0-11.7-10.1-21.2-22.5-21.2h-75.7c-12.4,0-22.5,9.5-22.5,21.2H157
							c0-17.1,14.8-31,32.9-31h75.7C283.7,523.5,298.5,537.5,298.5,554.6z"/>
					</g>
					<rect x="215.9" y="508.8" class="st3" width="24.3" height="14.9"/>
				</g>
				<g>
					<ellipse class="st16" cx="161.8" cy="564" rx="8.6" ry="8.1"/>
					<path class="st1" d="M174.2,563.3h-23.6v-2.2c0-6.1,4.9-11,11-11h1.6c6.1,0,11,4.9,11,11V563.3z"/>
					<ellipse class="st16" cx="293.8" cy="564" rx="8.6" ry="8.1"/>
					<path class="st1" d="M306.3,563.3h-23.6v-2.2c0-6.1,4.9-11,11-11h1.6c6.1,0,11,4.9,11,11V563.3z"/>
				</g>
				<rect x="221.6" y="526.6" class="st3" width="13.8" height="29.4"/>
				<g>
					<ellipse class="st16" cx="228.8" cy="564" rx="8.6" ry="8.1"/>
					<path class="st1" d="M241.2,563.3h-23.6v-2.2c0-6.1,4.9-11,11-11h1.6c6.1,0,11,4.9,11,11V563.3z"/>
				</g>
			</g>
			<path class="st37" d="M95.8,249L118,409.6c1.4,9.8,9.6,17.1,19.4,17.4l81.2,0.9l-45.1-202h-57.6C103.6,225.9,94.1,236.8,95.8,249
				z"/>
			<path class="st38" d="M314.5,427.9H201.7c-9.6,0-17.5-7.9-17.5-17.5l0,0c0-9.6,7.9-17.5,17.5-17.5h112.9
				c9.6,0,17.5,7.9,17.5,17.5l0,0C332,420.1,324.2,427.9,314.5,427.9z"/>
			<path class="st34" d="M208.1,196.9c-2.2,31.7,4,145.9,5.9,179.6c-18.1-0.4-32.9-2-32.9-2l0.4-172.4c0-24.3,17.6-44.4,40.7-48.5
				C222.2,153.6,210.7,159.6,208.1,196.9z"/>
			<polygon class="st4" points="264.7,155.9 213.9,155.9 213.9,141.7 264.7,147.7 			"/>
			<path class="st38" d="M182.7,405.8l-23.6-164.7c-1.1-7.3,4.5-14.2,12.2-15.1l0,0c7.8-1,15,4.2,16.1,11.5L211,402.2
				c1.1,7.3-4.5,14.2-12.2,15.1l0,0C191,418.4,187,423.9,182.7,405.8z"/>
			<path class="st34" d="M296,271.1l-0.8,87.8c0,0-1.9,2.1-7.5,5.1L276,231.6C276,231.6,286.7,258.4,296,271.1z"/>
		</g>
	</g>
	<path class="st39" d="M516.7,209.7l-5.8,32.5l-4.1,22.7c-2.3,1.1-4.8,1.6-7.5,1.6h-55c5.2-5.4,14-14.5,23.4-24.4
		c14.7-15.4,31-32.9,38.3-41.8L516.7,209.7z"/>
</g>
<g>
	<path class="st22" d="M486.4,293.6h108.9c0.6-0.9,1.1-1.9,1.4-2.9l24.4-87.9c1.2-4.2-2-8.3-6.3-8.3H519c-3,0-5.5,2-6.3,4.8
		L486.4,293.6z"/>
	<path class="st5" d="M615.8,199.7l-24.3,87.8c-1.1,4.1-4.9,6.9-9.1,6.9H480.2l27.2-98.3c0.8-2.8,3.4-4.8,6.3-4.8h95.7
		C613.9,191.3,617,195.5,615.8,199.7z"/>
	<path class="st24" d="M610.5,203.5l-19.9,71.6l-4.2,15H485.1l4.2-15l20.8-74.9c0.7-2.6,3.1-4.4,5.9-4.4h88.7
		C608.6,195.8,611.5,199.7,610.5,203.5z"/>
	<g>
		<g>
			<polygon class="st40" points="550.8,205.6 519.6,205.6 520.3,203.4 551.5,203.4 			"/>
			<polygon class="st7" points="579.1,205.6 564.3,205.6 565,203.4 579.7,203.4 			"/>
			<polygon class="st5" points="600.4,205.6 585.6,205.6 586.3,203.4 601.1,203.4 			"/>
			<polygon class="st6" points="583.9,205.6 580.4,205.6 581.1,203.4 584.6,203.4 			"/>
			<polygon class="st5" points="562.6,205.6 552.2,205.6 552.9,203.4 563.3,203.4 			"/>
		</g>
		<g>
			<polygon class="st22" points="529,243 543.8,243 544.5,240.8 529.7,240.8 			"/>
			<polygon class="st8" points="507.7,243 522.5,243 523.2,240.8 508.4,240.8 			"/>
			<polygon class="st6" points="524.2,243 527.7,243 528.4,240.8 524.9,240.8 			"/>
		</g>
		<g>
			<polygon class="st7" points="528.3,214.9 516.6,214.9 517.3,212.7 529,212.7 			"/>
			<polygon class="st6" points="556.6,214.9 551.6,214.9 552.3,212.7 557.3,212.7 			"/>
			<polygon class="st7" points="597.4,214.9 572.9,214.9 573.6,212.7 598.1,212.7 			"/>
			<polygon class="st6" points="571.2,214.9 557.9,214.9 558.6,212.7 571.8,212.7 			"/>
			<polygon class="st6" points="549.9,214.9 529.8,214.9 530.5,212.7 550.6,212.7 			"/>
		</g>
		<g>
			<polygon class="st10" points="510.5,271.1 498.8,271.1 499.5,268.9 511.2,268.9 			"/>
		</g>
		<g>
			<polygon class="st22" points="525.3,224.3 513.6,224.3 514.3,222.1 526,222.1 			"/>
			<polygon class="st22" points="544.4,224.3 532.7,224.3 533.4,222.1 545.1,222.1 			"/>
			<polygon class="st6" points="591.2,224.3 571.1,224.3 571.8,222.1 591.9,222.1 			"/>
		</g>
		<g>
			<polygon class="st6" points="510.7,233.6 530.8,233.6 531.5,231.4 511.4,231.4 			"/>
		</g>
	</g>
	<polygon class="st5" points="591.9,275.2 587.6,290.2 483.7,290.2 488,275.2 	"/>
	<g>
		<path class="st5" d="M535.9,294.7H411.5c-2.9,0-5.3-2.4-5.3-5.3l0,0c0-2.9,2.4-5.3,5.3-5.3h124.4c2.9,0,5.3,2.4,5.3,5.3l0,0
			C541.2,292.3,538.9,294.7,535.9,294.7z"/>
	</g>
	<polygon class="st41" points="584.9,191.3 582.8,195.8 546.6,275.1 542.9,283.3 503.7,283.3 507.5,275.1 543.7,195.8 545.7,191.3 	
		"/>
	<polygon class="st41" points="469.8,117.2 416,235 358.4,235 412.2,117.2 	"/>
	<g>
		<g>
			<path class="st22" d="M583.1,294.3h-72c-2.9,0-5.3-2.4-5.3-5.3l0,0c0-2.9,2.4-5.3,5.3-5.3h72c2.9,0,5.3,2.4,5.3,5.3l0,0
				C588.4,292,586,294.3,583.1,294.3z"/>
		</g>
		<g>
			<rect x="547" y="287.3" class="st16" width="10.3" height="3.1"/>
			<rect x="536.4" y="287.3" class="st16" width="7.5" height="3.1"/>
		</g>
	</g>
</g>
<g>
	<g>
		<path class="st42" d="M481.8,251.5v43.1h-36v-43.1c0-1.9,1.5-3.4,3.4-3.4h29.1C480.2,248.1,481.8,249.6,481.8,251.5z"/>
		<g>
			<path class="st7" d="M446.2,287.2c-0.5-0.3-11.5-6.7-12.5-18.1c-0.4-4.3,1.3-7,2.7-8.5c4-4.1,10.5-3.8,11.3-3.8l-0.3,5.3
				c-1.3-0.1-5.3,0.2-7.2,2.2c-1,1-1.4,2.5-1.2,4.4c0.8,8.6,9.8,13.9,9.9,14L446.2,287.2z"/>
		</g>
	</g>
	<path class="st7" d="M465,294.6h-19.2v-43.1c0-1.9,1.5-3.4,3.4-3.4h1.2c0.1,2.2,0.7,19.4,5.5,31.8
		C460.1,290.6,463.8,293.8,465,294.6z"/>
	<path class="st43" d="M433.7,269.1c0.9,10.2,9.9,16.5,12.1,17.8v7.7H465c-1.1-0.8-4.9-3.9-9.1-14.7c-4.8-12.4-5.4-29.6-5.5-31.8
		h-1.2c-1.9,0-3.4,1.5-3.4,3.4v5.4c-2.4,0.2-6.5,0.9-9.4,3.8C435,262.1,433.4,264.8,433.7,269.1z M440.2,264.3
		c1.4-1.4,3.8-2,5.6-2.2v18.2c-2.7-2.3-6.3-6.4-6.8-11.7C438.8,266.8,439.2,265.3,440.2,264.3z"/>
</g>
<g>
	<g>
		
			<rect x="39.5" y="240.3" transform="matrix(0.1743 -0.9847 0.9847 0.1743 -182.4667 267.1003)" class="st44" width="57.1" height="4.1"/>
		
			<rect x="63.3" y="218.1" transform="matrix(0.1743 -0.9847 0.9847 0.1743 -158.5626 253.5104)" class="st44" width="17.2" height="6.4"/>
	</g>
	<g>
		<polygon class="st45" points="58.3,278 54.2,277.7 59,220.7 61.5,217.1 63.1,221.1 		"/>
	</g>
	<g>
		<polygon class="st46" points="52.6,280.9 48.5,281.7 37.6,225.6 39,221.4 41.7,224.8 		"/>
	</g>
	<g>
		<polygon class="st47" points="61.7,294 44,294 38.2,247.1 67.5,247.1 		"/>
		<polygon class="st48" points="68.4,294 50.7,294 48.1,247.1 74.2,247.1 		"/>
	</g>
</g>
<g>
	<g>
		<path class="st38" d="M614.7,364.6v25.8h90c5.6,0,10.4-3.6,12.1-8.6c0.5-1.3,0.7-2.8,0.7-4.3c0-3.5-1.4-6.8-3.8-9.1
			c-2.3-2.3-5.6-3.8-9.1-3.8L614.7,364.6L614.7,364.6z"/>
		<path class="st43" d="M634.8,381.8v8.6h69.9c5.6,0,10.4-3.6,12.1-8.6H634.8z"/>
		<path class="st37" d="M595.4,364.5v25.8h59c7.1,0,12.9-5.8,12.9-12.9c0-3.6-1.4-6.8-3.8-9.1c-2.3-2.3-5.6-3.8-9.1-3.8H595.4z"/>
		<path class="st4" d="M595.4,369v16.5H651c4.6,0,8.3-3.7,8.3-8.3c0-2.3-0.9-4.3-2.4-5.8s-3.6-2.4-5.8-2.4H595.4z"/>
	</g>
	<g>
		<path class="st49" d="M613,313.3v25.8h90c7.1,0,12.9-5.8,12.9-12.9c0-3.6-1.4-6.8-3.8-9.1c-2.3-2.3-5.6-3.8-9.1-3.8H613z"/>
		<path class="st50" d="M633.4,321.9v-8.6h69.9c5.6,0,10.4,3.6,12.1,8.6H633.4z"/>
		<path class="st51" d="M595.4,313.3v25.8h59c7.1,0,12.9-5.8,12.9-12.9c0-3.6-1.4-6.8-3.8-9.1c-2.3-2.3-5.6-3.8-9.1-3.8H595.4z"/>
		<path class="st4" d="M595.4,317.7v16.5H651c4.6,0,8.3-3.7,8.3-8.3c0-2.3-0.9-4.3-2.4-5.8s-3.6-2.4-5.8-2.4L595.4,317.7z"/>
	</g>
	<g>
		<path class="st9" d="M608.3,339.2V365h90c7.1,0,12.9-5.8,12.9-12.9c0-2.2-0.5-4.3-1.5-6.1c-0.6-1.1-1.4-2.2-2.3-3.1
			c-2.3-2.3-5.6-3.8-9.1-3.8h-90V339.2z"/>
		<path class="st52" d="M610.7,339.2v6.8h99c-0.6-1.1-1.4-2.2-2.3-3.1c-2.3-2.3-5.6-3.8-9.1-3.8h-87.6V339.2z"/>
		<path class="st52" d="M610.7,365v-6.8h99c-0.6,1.1-1.4,2.2-2.3,3.1c-2.3,2.3-5.6,3.8-9.1,3.8L610.7,365z"/>
		<path class="st53" d="M584.7,339.2V365h54c7.1,0,12.9-5.8,12.9-12.9c0-3.6-1.4-6.8-3.8-9.1c-2.3-2.3-5.6-3.8-9.1-3.8H584.7z"/>
		<path class="st4" d="M584.7,343.7v16.5h50.6c4.6,0,8.3-3.7,8.3-8.3c0-2.3-0.9-4.3-2.4-5.8s-3.6-2.4-5.8-2.4L584.7,343.7z"/>
	</g>
</g>
<g>
	<g>
		<g>
			<path class="st16" d="M622.2,187.8L622.2,187.8c-4.3-4.6-3.9-11.7,0.8-15.8l0.5-0.5c4.8-4.2,12.1-3.8,16.4,0.8l0,0
				c4.3,4.6,3.9,11.7-0.8,15.8l-0.5,0.5C633.9,192.8,626.5,192.4,622.2,187.8z"/>
			<path class="st32" d="M631.3,210.1L620,220l-32.2-34.3l11.3-9.9c7.9-6.8,19.1-7.7,27.9-3c2.2,1.2,4.2,2.7,6,4.7
				c4.4,4.7,6.5,10.8,6.2,16.7C638.9,200.1,636.3,205.8,631.3,210.1z"/>
			<path class="st8" d="M621.1,199.2l-11.3,9.9l-21.9-23.4l11.3-9.9c7.9-6.8,19.1-7.7,27.9-3c1.5,3.3,2.2,6.9,2,10.4
				C628.7,189.1,626,194.9,621.1,199.2z"/>
		</g>
		<path class="st5" d="M620.6,219.9c-3.4,3.1-13.5-2-22.6-11.4c-9-9.4-13.6-19.4-10.2-22.5c2.7-2.4,9.6,0.3,16.8,6.1
			c1.9,1.6,3.9,3.3,5.7,5.3c2.2,2.3,4.1,4.6,5.8,6.9C621.2,211.2,623.2,217.5,620.6,219.9z"/>
		<path class="st4" d="M616.2,204.2c-2.6,2.9-7.1,3.7-10.7,1.7c-4.1-2.2-5.6-7.3-3.2-11.3c0.6-1.1,1.5-1.9,2.4-2.6
			c1.9,1.6,3.9,3.3,5.7,5.3C612.6,199.6,614.5,202,616.2,204.2z"/>
	</g>
	<polyline class="st54" points="679.4,298.8 708.8,204 649.3,164.4 636.8,175 	"/>
	<g>
		<path class="st16" d="M655.8,164.9c0,3.9-3.3,7-7.3,7s-7.3-3.2-7.3-7s3.3-7,7.3-7C652.6,157.9,655.8,161,655.8,164.9z"/>
		<path class="st10" d="M652.2,164.9c0,1.9-1.6,3.5-3.7,3.5c-2,0-3.7-1.6-3.7-3.5s1.6-3.5,3.7-3.5
			C650.5,161.4,652.2,163,652.2,164.9z"/>
	</g>
	<path class="st10" d="M709,313.6h-75.7l0,0c0-8.3,6.7-15,15-15h45.6C702.3,298.6,709,305.3,709,313.6L709,313.6z"/>
	<rect x="648.9" y="294.8" class="st16" width="13.7" height="4.1"/>
	<g>
		<ellipse class="st16" cx="708.2" cy="204.9" rx="10.2" ry="9.9"/>
		<ellipse class="st10" cx="708.2" cy="204.9" rx="5.1" ry="4.9"/>
	</g>
</g>
<g>
	<g>
		<path class="st55" d="M773.9,319.2c-11.1,15.1-33.4,17.6-33.4,17.6s-4.3-22,6.8-37.1s33.4-17.6,33.4-17.6S785,304.1,773.9,319.2z"
			/>
		<path class="st56" d="M727.3,310.2c10.2,10,9.6,27.1,9.6,27.1s-17,0.8-27.2-9.2s-9.6-27.1-9.6-27.1S717.1,300.1,727.3,310.2z"/>
		<path class="st57" d="M752.5,302.6c2.1,18.6-12.6,35.6-12.6,35.6s-18-13.3-20.1-31.9s12.6-35.6,12.6-35.6S750.4,284,752.5,302.6z"
			/>
	</g>
	<g>
		<polygon class="st58" points="751.1,389.6 712.5,389.6 699.9,333.3 763.8,333.3 		"/>
		<polygon class="st35" points="765.7,389.6 727.1,389.6 721.4,333.3 778.4,333.3 		"/>
	</g>
</g>
</svg>
