<svg height="464pt" viewBox="0 -56 464 464" width="464pt" xmlns="http://www.w3.org/2000/svg"><path d="m232 0-232 120v232h464v-232zm0 0" fill="#cc7400"/><path d="m40 32h384v320h-384zm0 0" fill="#f1f2f2"/><path d="m40 146.214844v.023437-.023437l-40-26.214844v232l186.855469-109.535156zm0 0" fill="#ffa733"/><path d="m424 146.238281v-.023437l-146.855469 96.25 186.855469 109.535156v-232l-40 26.214844zm0 0" fill="#ffa733"/><path d="m277.121094 242.480469.023437-.015625-45.144531-26.464844-45.144531 26.464844.023437.015625-.023437-.015625-186.855469 109.535156h464l-186.855469-109.535156zm0 0" fill="#ffb655"/><g fill="#808285"><path d="m88 64h24v16h-24zm0 0"/><path d="m136 64h240v16h-240zm0 0"/><path d="m88 104h288v16h-288zm0 0"/></g></svg>